<svg width="21" height="21" viewBox="0 0 21 21" fill="none" xmlns="http://www.w3.org/2000/svg">
<g clip-path="url(#clip0)">
<path d="M20.4285 15.4119L17.4979 12.4813C16.4512 11.4346 14.6719 11.8533 14.2533 13.2139C13.9393 14.1559 12.8926 14.6793 11.9506 14.4699C9.85734 13.9466 7.03139 11.2253 6.50807 9.02733C6.19408 8.08531 6.82206 7.03866 7.76405 6.72471C9.12469 6.30605 9.54335 4.52675 8.4967 3.4801L5.56609 0.54949C4.72877 -0.183163 3.47279 -0.183163 2.74014 0.54949L0.751511 2.53812C-1.23712 4.63141 0.96084 10.1786 5.88008 15.0979C10.7993 20.0171 16.3466 22.3198 18.4398 20.2265L20.4285 18.2378C21.1612 17.4005 21.1612 16.1445 20.4285 15.4119Z" fill="#FF7D87"/>
</g>
<defs>
<clipPath id="clip0">
<rect width="21" height="21" fill="white"/>
</clipPath>
</defs>
</svg>
