<svg width="1279" height="231" viewBox="0 0 1279 231" fill="none" xmlns="http://www.w3.org/2000/svg">
<path d="M0 0C14 46 73.5965 30.5158 78 86.0003C80.5 117.5 82 157.001 73 175C63.5129 193.974 56.3162 226.917 86.5 230.5C113.944 233.758 114.002 205.235 107 178.5C96 136.5 97.6685 123.813 100 90.5003C102.207 58.9619 124.549 81.6833 152 66.0001C181.817 48.9656 187 93 236 66.0001C285 39.0001 285 31.9998 330 28.9998C375 25.9998 404.367 67.1946 454 66.0001C513.226 64.5746 530 66 577 46C624 26 628 15.0001 689 15C741.102 14.9999 796.554 82.9999 848 82.9998C890 82.9996 954.572 27.9867 997 28.9998C1034.89 29.9045 1075.76 70.9397 1113 77.9998C1182.53 91.1834 1174 46 1221 46C1268 46 1246 0 1279 0H0Z" fill="white"/>
</svg>
