<svg width="1279" height="354" viewBox="0 0 1279 354" fill="none" xmlns="http://www.w3.org/2000/svg">
<path d="M0 13.9998C46.4 35.5998 73.5965 15.5159 78 71.0003C80.5 102.5 82 142.001 73 160C63.5129 178.974 56.3162 211.917 86.5 215.5C113.944 218.758 114.002 190.235 107 163.5C96 121.5 97.6685 108.813 100 75.5003C102.207 43.9619 124.549 66.6833 152 51.0001C181.817 33.9656 187 78 236 51.0001C285 24.0001 285 16.9998 330 13.9998C375 10.9998 404.367 52.1946 454 51.0001C513.226 49.5746 530 51 577 31C624 11 628 0.000117011 689 1.1017e-10C741.102 -9.99438e-05 796.554 67.9999 848 67.9997C890 67.9996 954.572 12.9867 997 13.9998C1034.89 14.9045 1075.76 55.9397 1113 62.9998C1182.53 76.1834 1215 18.4995 1243 13.9998C1271 9.5 1279 13.9998 1279 13.9998V354H0V13.9998Z" fill="#FF7D87"/>
</svg>
