<svg width="108" height="84" viewBox="0 0 108 84" fill="none" xmlns="http://www.w3.org/2000/svg">
<path d="M54.029 82.2495C55.1159 81.1232 57.3148 80.9961 58.536 81.9952C59.8109 82.955 62.0921 82.5718 62.9874 81.2468C63.8218 79.9038 65.9115 79.3004 67.3243 79.9933C68.78 80.6433 70.918 79.7605 71.4964 78.2672C71.987 76.7774 73.9155 75.7102 75.4447 76.0773C77.0025 76.3906 78.9077 75.0369 79.1244 73.463C79.2784 71.898 80.915 70.4279 82.4907 70.4565C84.0898 70.401 85.6279 68.6767 85.4972 67.0884C85.3092 65.5216 86.5715 63.7453 88.1115 63.4087C89.655 63.0094 90.7777 60.9896 90.3014 59.4604C89.7642 57.9903 90.6022 55.9562 92.0275 55.2901C93.4439 54.5613 94.0921 52.3123 93.281 50.9532C92.4233 49.6371 92.7903 47.4669 94.0294 46.5C95.2453 45.4757 95.376 43.1659 94.2837 41.993C93.1574 40.9061 93.0303 38.7072 94.0294 37.4878C94.9892 36.2129 94.6042 33.9299 93.281 33.0364C91.9362 32.2002 91.3328 30.1105 92.0275 28.6977C92.6775 27.2438 91.7947 25.1058 90.3014 24.5256C88.8134 24.035 87.7444 22.1065 88.1115 20.5863C88.4248 19.0284 87.0711 17.1232 85.4972 16.9066C83.9322 16.7508 82.4639 15.116 82.4907 13.5402C82.4352 11.9412 80.7127 10.4013 79.1244 10.532C77.5558 10.7111 75.7813 9.45764 75.4447 7.91771C75.0454 6.37421 73.0238 5.25149 71.4964 5.7278C70.0263 6.26498 67.9904 5.42697 67.3243 4.00165C66.5973 2.58707 64.3483 1.93708 62.9874 2.74822C61.6731 3.60413 59.5029 3.23885 58.536 1.99796C57.5099 0.782133 55.2001 0.653209 54.029 1.74369C52.9421 2.87177 50.7432 2.99712 49.522 1.99796C48.2489 1.04356 45.9587 1.42675 45.0634 2.7518C44.229 4.09297 42.1394 4.6982 40.7266 4.00523C39.2708 3.35524 37.1328 4.2398 36.5544 5.73138C36.0638 7.21937 34.1353 8.29016 32.6151 7.92129C31.0573 7.60794 29.1503 8.96343 28.9336 10.5356C28.7796 12.1024 27.143 13.5689 25.5673 13.5438C23.9683 13.5975 22.4301 15.3201 22.559 16.9102C22.7471 18.4769 21.4847 20.2532 19.9465 20.5899C18.4013 20.9874 17.2803 23.009 17.7566 24.5292C18.2938 25.9993 17.4558 28.0352 16.0305 28.7013C14.6159 29.4283 13.9659 31.6773 14.7771 33.04C15.6348 34.3525 15.2677 36.5245 14.0286 37.4914C12.8128 38.5156 12.682 40.8273 13.7743 41.9966C14.9024 43.0835 15.0277 45.2824 14.0286 46.5036C13.0688 47.7785 13.452 50.0597 14.7771 50.9568C16.12 51.7894 16.7252 53.8791 16.0305 55.2937C15.3787 56.7476 16.2633 58.8964 17.7566 59.4658C19.2446 59.9582 20.3136 61.8867 19.9465 63.4141C19.6314 64.9701 20.9869 66.8771 22.559 67.0938C24.1258 67.2478 25.6031 68.8933 25.5673 70.4619C25.621 72.0591 27.3453 73.5991 28.9336 73.4683C30.5022 73.2803 32.2767 74.5427 32.6151 76.0826C33.0126 77.6261 35.0342 78.7471 36.5544 78.2726C38.0245 77.7354 40.0605 78.5734 40.7266 79.9987C41.4536 81.4133 43.7026 82.0633 45.0634 81.2521C46.3777 80.3962 48.5479 80.7633 49.5149 82.0006C50.5391 83.2164 52.8508 83.3489 54.0218 82.2549" fill="#6EAABE"/>
<path d="M54.029 82.2495C55.1159 81.1232 57.3148 80.9961 58.536 81.9952C59.8109 82.955 62.0921 82.5718 62.9874 81.2468C63.8218 79.9038 65.9115 79.3004 67.3243 79.9933C68.78 80.6433 70.918 79.7605 71.4964 78.2672C71.987 76.7774 73.9155 75.7102 75.4447 76.0773C77.0025 76.3906 78.9077 75.0369 79.1244 73.463C79.2784 71.898 80.915 70.4279 82.4907 70.4565C84.0897 70.401 85.6279 68.6767 85.4972 67.0884C85.3092 65.5216 86.5715 63.7453 88.1115 63.4087C89.655 63.0094 90.7777 60.9896 90.3014 59.4604C89.7642 57.9903 90.6022 55.9562 92.0275 55.2901C93.4439 54.5613 94.0921 52.3123 93.281 50.9532C92.4233 49.6371 92.7903 47.4669 94.0294 46.5C95.2453 45.4757 95.376 43.1659 94.2837 41.993C93.1574 40.9061 93.0303 38.7072 94.0294 37.4878C94.9892 36.2129 94.6042 33.9299 93.281 33.0364C91.9362 32.2002 91.3328 30.1105 92.0275 28.6977C92.6775 27.2438 91.7947 25.1058 90.3014 24.5256C88.8134 24.035 87.7444 22.1065 88.1115 20.5863C88.4248 19.0284 87.0711 17.1232 85.4972 16.9066C83.9322 16.7508 82.4639 15.116 82.4907 13.5402C82.4352 11.9412 80.7127 10.4013 79.1244 10.532C77.5558 10.7111 75.7813 9.45764 75.4447 7.91771C75.0454 6.37421 73.0238 5.25149 71.4964 5.7278C70.0263 6.26498 67.9904 5.42697 67.3243 4.00165C66.5973 2.58707 64.3483 1.93708 62.9874 2.74822C61.6731 3.60413 59.5029 3.23885 58.536 1.99796C57.5099 0.782133 55.2001 0.653209 54.029 1.74369C52.9421 2.87177 50.7432 2.99712 49.522 1.99796C48.2489 1.04356 45.9587 1.42675 45.0634 2.7518C44.229 4.09297 42.1394 4.6982 40.7266 4.00523C39.2708 3.35524 37.1328 4.2398 36.5544 5.73138C36.0638 7.21937 34.1353 8.29016 32.6151 7.92129C31.0573 7.60794 29.1503 8.96343 28.9336 10.5356C28.7796 12.1024 27.143 13.5689 25.5673 13.5438C23.9683 13.5975 22.4301 15.3201 22.559 16.9102C22.7471 18.4769 21.4847 20.2532 19.9465 20.5899C18.4013 20.9874 17.2803 23.009 17.7566 24.5292C18.2938 25.9993 17.4558 28.0352 16.0305 28.7013C14.6159 29.4283 13.9659 31.6773 14.7771 33.04C15.6348 34.3525 15.2677 36.5245 14.0286 37.4914C12.8128 38.5156 12.682 40.8273 13.7743 41.9966C14.9024 43.0835 15.0277 45.2824 14.0286 46.5036C13.0688 47.7785 13.452 50.0597 14.7771 50.9568C16.12 51.7894 16.7252 53.8791 16.0305 55.2937C15.3787 56.7476 16.2633 58.8964 17.7566 59.4658C19.2446 59.9582 20.3136 61.8867 19.9465 63.4141C19.6314 64.9701 20.9869 66.8771 22.559 67.0938C24.1258 67.2478 25.6031 68.8933 25.5673 70.4619C25.621 72.0591 27.3453 73.5991 28.9336 73.4683C30.5022 73.2803 32.2767 74.5427 32.6151 76.0826C33.0126 77.6261 35.0342 78.7471 36.5544 78.2725C38.0245 77.7354 40.0605 78.5734 40.7266 79.9987C41.4536 81.4133 43.7026 82.0633 45.0634 81.2521C46.3777 80.3962 48.5479 80.7633 49.5149 82.0006C50.5391 83.2164 52.8508 83.3489 54.0218 82.2549" stroke="#6EAABE" stroke-width="0.0515999"/>
<path d="M54.4193 77.0961C73.8023 77.0961 89.5153 61.3831 89.5153 42.0001C89.5153 22.6172 73.8023 6.90421 54.4193 6.90421C35.0364 6.90421 19.3234 22.6172 19.3234 42.0001C19.3234 61.3831 35.0364 77.0961 54.4193 77.0961Z" stroke="white" stroke-width="0.0945998"/>
<path d="M54.4192 74.3815C60.824 74.3815 67.0849 72.4823 72.4103 68.924C77.7357 65.3657 81.8863 60.3081 84.3373 54.3909C86.7883 48.4736 87.4296 41.9624 86.1801 35.6807C84.9306 29.399 81.8464 23.6289 77.3175 19.1C72.7887 14.5711 67.0185 11.4869 60.7368 10.2374C54.4551 8.98792 47.9439 9.62922 42.0267 12.0802C36.1094 14.5312 31.0519 18.6819 27.4936 24.0072C23.9353 29.3326 22.036 35.5936 22.036 41.9984C22.0358 46.2511 22.8732 50.4621 24.5006 54.3912C26.1279 58.3202 28.5132 61.8902 31.5203 64.8973C34.5274 67.9044 38.0974 70.2897 42.0264 71.917C45.9554 73.5443 50.1665 74.3818 54.4192 74.3815V74.3815Z" stroke="white" stroke-width="0.0451499"/>
<path d="M72.6137 44.3029L72.3881 44.2778C72.3881 44.1095 72.4776 44.0272 72.6549 44.0272C72.6627 44.0704 72.6833 44.1103 72.714 44.1418C72.7448 44.1755 72.7642 44.2181 72.7695 44.2635C72.7484 44.2818 72.7233 44.2948 72.6963 44.3017C72.6692 44.3085 72.6409 44.3089 72.6137 44.3029ZM72.3791 43.37L72.2341 43.3145L72.363 43.0781L72.5081 43.1175L72.3791 43.37ZM71.7882 42.3082H72.0568V42.4693H71.7882V42.3082ZM72.4167 41.3914C72.4121 41.397 72.408 41.403 72.4042 41.4093C72.4042 41.2195 72.3362 41.1872 72.2019 41.3108C72.2019 41.2839 72.2395 41.2463 72.3111 41.2016C72.3827 41.1568 72.4203 41.1156 72.4203 41.0834C72.4203 41.2839 72.4203 41.3878 72.4203 41.3914H72.4167ZM72.8304 41.1335C72.7328 41.0514 72.6087 41.0075 72.4812 41.01C72.6603 40.8434 72.7802 40.7593 72.8393 40.7593C72.868 40.782 72.8909 40.8111 72.9062 40.8443C72.9214 40.8776 72.9285 40.914 72.927 40.9505C72.9254 40.9871 72.9152 41.0227 72.8971 41.0545C72.8791 41.0863 72.8538 41.1134 72.8232 41.1335H72.8304ZM73.2189 40.7915L72.8877 40.6769V40.5408L73.2762 40.6608L73.2189 40.7915ZM73.2852 41.0762L73.1939 40.9455L73.5932 40.6304L73.6899 40.7521L73.2852 41.0762ZM74.2091 39.1066C74.129 39.1255 74.0476 39.1387 73.9656 39.1459L74.1447 38.9364C74.2199 38.8433 74.2772 38.7986 74.3148 38.7986C74.4061 38.7986 74.4527 38.8881 74.4527 39.0654C74.3705 39.0725 74.2891 39.0862 74.2091 39.1066ZM75.2298 38.4494L75.1421 38.3527L75.4805 38.0358L75.5861 38.1253L75.2298 38.4494ZM75.6828 43.0459C75.2566 43.3825 74.886 43.5491 74.5726 43.5491C74.4472 43.5507 74.3236 43.5183 74.2151 43.4552C74.1066 43.3922 74.0173 43.3008 73.9567 43.1909C73.8357 42.994 73.7736 42.7666 73.7776 42.5356C73.8004 42.2063 73.8654 41.8813 73.971 41.5686C74.0687 41.2881 74.1342 40.9973 74.1662 40.702C74.1679 40.6443 74.1594 40.5867 74.1411 40.5319C74.2354 40.3302 74.3475 40.1372 74.4759 39.9553C74.4489 39.957 74.4235 39.9684 74.4043 39.9875C74.35 40.0182 74.2871 40.0301 74.2253 40.0216C74.1375 40.0216 74.0945 40.0072 74.0945 39.9804C74.0945 39.9535 74.1196 39.932 74.168 39.898C74.4106 39.6906 74.6352 39.4629 74.8394 39.2176C75.2413 39.1823 75.6448 39.1685 76.0481 39.1764C76.0571 39.1001 76.072 39.0247 76.0929 38.9508C76.1139 38.8792 76.1294 38.8062 76.1394 38.7323L75.8529 38.9114C75.8314 38.9114 75.801 38.8774 75.7598 38.8093C75.7412 38.7684 75.7151 38.7313 75.6828 38.7001C75.6317 38.7307 75.571 38.741 75.5127 38.7291C75.4544 38.7172 75.4026 38.6838 75.3677 38.6356C75.641 38.4178 75.9421 38.2371 76.263 38.0984C76.1499 38.0908 76.0381 38.0698 75.9299 38.0358C75.8139 37.9985 75.6935 37.9763 75.5718 37.9695C75.375 37.9596 75.1822 38.0271 75.0346 38.1575L74.8824 38.0179C75.0991 37.7546 75.3086 37.3016 75.5145 36.6642C75.6649 36.1717 75.8171 35.6829 75.9675 35.1977H75.5396L73.7131 35.6023C73.2989 36.7268 72.9927 37.5839 72.7946 38.1736H71.7972C71.8799 38.2918 71.9203 38.4344 71.9118 38.5783C71.9073 38.7275 71.8869 38.8758 71.8509 39.0206C71.821 39.1309 71.8006 39.2435 71.79 39.3572C71.9905 39.3307 72.1944 39.3578 72.3809 39.436C72.3692 39.5678 72.3465 39.6984 72.3129 39.8264C72.2727 39.9858 72.2493 40.1491 72.2431 40.3134C72.2399 40.4336 72.2657 40.5527 72.3183 40.6608C72.6477 40.3528 72.8823 40.2006 73.022 40.2006C73.0706 40.1981 73.1193 40.2017 73.167 40.2114C73.1885 40.2114 73.1992 40.2311 73.1921 40.24C73.1849 40.249 73.1831 40.24 73.1778 40.249C72.9904 40.3771 72.8137 40.5202 72.6495 40.6769C72.4907 40.8468 72.2743 40.9515 72.0425 40.9706C71.993 40.9709 71.9436 40.9649 71.8957 40.9527V41.5776C72.1553 41.5776 72.2842 41.6224 72.2842 41.7065C72.0792 41.7953 71.9123 41.9539 71.8133 42.1542C71.7781 42.1086 71.7523 42.0565 71.7372 42.0008C71.7221 41.9452 71.7182 41.8872 71.7256 41.8301C71.7321 42.0867 71.682 42.3417 71.5787 42.5768C71.6056 42.6036 71.6271 42.6054 71.645 42.5768C71.6694 42.5557 71.6979 42.5399 71.7287 42.5303C71.7595 42.5208 71.792 42.5177 71.8241 42.5212C71.9279 42.5212 71.9816 42.5589 71.987 42.6412C71.9762 42.5069 71.9709 42.575 71.9709 42.8436C71.9709 42.8561 72.0282 42.806 72.141 42.6985C72.1625 42.6985 72.175 42.7146 72.1786 42.7469C72.1786 42.7809 72.2287 42.7952 72.32 42.7952C72.4432 42.7785 72.5686 42.8011 72.6782 42.8597V43.0871C72.474 43.0871 72.4346 43.028 72.5654 42.908C72.2395 43.0584 72.0783 43.1999 72.0783 43.3306C72.1858 43.3998 72.2395 43.4536 72.2395 43.4918C72.2217 43.5318 72.1975 43.5687 72.1678 43.601C72.1169 43.6674 72.0887 43.7483 72.0873 43.832C71.9366 43.8202 71.7962 43.751 71.6951 43.6386C71.713 43.6869 71.7918 43.8373 71.9315 44.0916C72.0168 44.229 72.0701 44.3838 72.0873 44.5446C72.1847 44.5336 72.2816 44.5174 72.3773 44.4963C72.4749 44.4738 72.577 44.4825 72.6692 44.5214C72.5618 44.6234 72.5063 44.6861 72.5063 44.7004C72.5063 44.7147 72.5403 44.7344 72.6048 44.7344C74.1793 41.7501 74.9827 40.2334 75.0149 40.1845H75.0615C74.9648 40.3779 74.1888 41.9566 72.7337 44.9207C72.7383 44.8546 72.764 44.7919 72.8071 44.7416C72.8268 44.9207 72.9987 45.0191 73.3174 45.0191C73.8856 45.0191 74.5691 44.7321 75.3677 44.1579C76.2164 43.5479 76.6414 42.9671 76.6426 42.4156C76.6421 42.3556 76.6367 42.2957 76.6265 42.2365C76.3131 42.5016 75.9944 42.7737 75.6756 43.0316L75.6828 43.0459ZM66.1729 43.3897L66.035 43.3324L66.1568 43.0799L66.2947 43.1301L66.1729 43.3897ZM66.3269 40.2275H66.4898V40.5856H66.3269V40.2275ZM67.2222 39.8371L67.0915 39.7816L67.2132 39.5363L67.3511 39.5864L67.2222 39.8371ZM69.0952 39.975C69.0952 39.8138 69.131 39.7315 69.2026 39.7315C69.2599 39.8282 69.319 39.8783 69.3817 39.8783C69.2026 39.8783 69.0987 39.9105 69.0987 39.975H69.0952ZM68.0029 38.4745V38.0214C68.0262 38.0214 68.0459 38.0501 68.0638 38.111C68.0817 38.1719 68.139 38.2005 68.2321 38.2005C68.3252 38.2005 68.3807 38.1898 68.4004 38.1683C68.4176 38.1495 68.4413 38.138 68.4667 38.136C68.2393 38.3617 68.0853 38.4745 68.0029 38.4745ZM70.1462 41.3484C70.1051 41.2947 70.1015 41.1317 70.1337 40.8631C70.0928 40.7859 70.0375 40.7173 69.9708 40.6608C69.9322 40.3425 69.7979 40.0435 69.5858 39.8031C69.452 39.6598 69.3365 39.5004 69.242 39.3286C69.242 39.2534 69.242 39.1209 69.2169 38.9329C69.1965 38.793 69.1887 38.6516 69.1936 38.5103C69.2035 38.5414 69.2167 38.5715 69.233 38.5998C69.233 38.5998 69.1936 38.5998 69.1041 38.5998C69.0826 38.5998 69.0504 38.5174 69.0056 38.3563C68.9575 38.1679 68.839 38.0051 68.6744 37.9015C68.7087 37.9315 68.7354 37.9692 68.7522 38.0115C68.769 38.0539 68.7755 38.0996 68.7711 38.145C68.7631 38.3025 68.7248 38.4569 68.6582 38.5998C68.5357 38.3619 68.4614 38.102 68.4398 37.8352C68.3428 37.9055 68.2305 37.9515 68.1121 37.9695C67.9431 38.013 67.7878 38.0986 67.6609 38.2184C67.615 38.161 67.5821 38.0945 67.5642 38.0232C67.2752 38.7333 66.9153 39.4124 66.4898 40.0502C66.0001 40.8257 65.4194 41.5399 64.7601 42.1775V42.917C65.6291 42.301 66.1233 41.5979 66.2427 40.8076L66.3788 40.9366C66.3323 40.9366 66.3072 41.0529 66.3072 41.2947C67.0485 40.3731 67.4347 39.8956 67.4657 39.8622C67.5964 40.1505 67.6985 40.3761 67.7665 40.5373C68.25 39.6885 68.6314 39.0475 68.9179 38.6159C68.9501 38.641 68.9662 38.7073 68.9662 38.8093C68.9662 38.9705 68.8391 39.1818 68.5866 39.4414C68.7582 39.5141 68.9191 39.6099 69.0647 39.7261C68.9613 39.8807 68.8105 39.9976 68.635 40.0592C68.5937 39.9983 68.5611 39.932 68.5383 39.8622C68.5142 39.7919 68.4778 39.7264 68.4308 39.6688C68.2494 40.0526 68.0399 40.4224 67.8041 40.7754C67.9832 40.8775 68.1927 41.155 68.4201 41.6062C68.6109 41.9352 68.7277 42.3019 68.7621 42.6806C68.7403 43.0414 68.5867 43.3817 68.3306 43.6368C68.213 43.7948 68.062 43.9248 67.8884 44.0177C67.7147 44.1105 67.5227 44.1639 67.326 44.174C67.0145 44.174 66.7763 43.986 66.6223 43.6135C66.4254 43.136 66.2976 42.8758 66.2391 42.8328H65.915C65.8882 42.8615 65.8022 42.9689 65.6554 43.1587C65.5587 43.284 65.4763 43.3467 65.4047 43.3467C65.463 43.385 65.5116 43.4364 65.5467 43.4966C65.5818 43.5569 65.6025 43.6245 65.6071 43.6941C65.607 43.7864 65.5756 43.876 65.518 43.9482C65.4604 44.0204 65.3801 44.071 65.2901 44.0916C65.3029 43.9263 65.2927 43.7599 65.2597 43.5974C65.1247 43.744 65.0488 43.9353 65.0466 44.1346C65.0446 44.2927 65.1029 44.4457 65.2095 44.5625C65.5107 44.1997 65.7842 43.8149 66.0278 43.4112L66.1747 43.558C65.8166 44.0719 65.5677 44.4533 65.4047 44.7165C65.7441 44.9045 66.1207 45.0157 66.5077 45.0424C67.3995 45.0424 68.2387 44.6503 69.0253 43.866C69.812 43.0817 70.2053 42.2574 70.2053 41.3932C70.2053 41.42 70.1839 41.4057 70.1445 41.352L70.1462 41.3484ZM69.0038 37.7851C69.0379 37.7851 69.0719 37.8334 69.1113 37.914C69.1507 37.9946 69.1847 38.0358 69.2151 38.0358C69.2582 37.9545 69.2965 37.8708 69.3297 37.7851H69.0038ZM65.3403 44.1883H65.1773V44.4497H65.3403V44.1883ZM56.7203 44.1185L56.6146 43.9143L56.7364 43.866L56.842 44.1185H56.7203ZM56.4767 43.712L56.355 43.6565L56.4696 43.4362L56.5895 43.4846L56.4767 43.712ZM56.6952 43.7281L56.6307 43.6153L56.9316 43.4112L57.0121 43.5258L56.6952 43.7281ZM57.4311 44.2223C57.3974 44.2393 57.3686 44.2646 57.3475 44.296C57.3265 44.3274 57.314 44.3637 57.3112 44.4014L56.996 44.3763V43.7353C57.1196 43.6117 57.218 43.5168 57.2879 43.4524C57.3733 43.575 57.4108 43.7247 57.3935 43.8732C57.3595 43.8409 57.2807 43.8875 57.159 44.011L57.2879 44.1328C57.3747 44.0779 57.4779 44.0551 57.5798 44.0683C57.5465 44.1351 57.495 44.191 57.4311 44.2295V44.2223ZM57.7248 44.1471H57.8698V44.5536H57.7248V44.1471ZM57.0282 43.225L56.5734 43.0459V42.9152L57.0838 43.1086L57.0282 43.225ZM56.5233 42.3332H56.6683V42.566H56.5233V42.3332ZM57.7481 43.703L57.6424 43.4506H57.7767L57.8824 43.6529L57.7481 43.703ZM58.1062 43.9788V43.8553L58.3085 43.7586L58.3569 43.8714L58.1062 43.9788ZM57.8627 43.9466C57.8652 43.8895 57.8793 43.8335 57.9043 43.7821C57.9292 43.7306 57.9644 43.6849 58.0077 43.6475C57.9086 43.4803 57.8584 43.2886 57.8627 43.0942C57.9104 43.1585 57.9523 43.2268 57.988 43.2984C58.0388 43.396 58.1033 43.4858 58.1796 43.5652C58.0435 43.7227 57.9379 43.8499 57.8627 43.9466ZM56.346 41.3108H56.4928V41.5382H56.346V41.3108ZM56.9423 41.1496C56.9002 41.2029 56.8686 41.2637 56.8492 41.3287C56.8398 41.2816 56.826 41.2354 56.808 41.1908C56.7919 41.1443 56.808 41.1192 56.8331 41.1192L57.0354 40.9401C57.0181 41.0115 56.9865 41.0785 56.9423 41.1371V41.1496ZM57.4974 40.8363L57.6675 40.6429C57.5874 40.5751 57.5011 40.5152 57.4096 40.4638C57.4665 40.4674 57.5225 40.4789 57.5762 40.4979C57.6291 40.5179 57.6845 40.5306 57.7409 40.5355C57.7364 40.6054 57.7106 40.6724 57.6671 40.7274C57.6236 40.7824 57.5644 40.8229 57.4974 40.8434V40.8363ZM57.8054 40.4459H57.9558V40.6715H57.8089L57.8054 40.4459ZM57.8054 40.0162H57.9558V40.3331H57.8089L57.8054 40.0162ZM60.4626 42.5911H60.6095V42.908H60.4626V42.5911ZM61.5746 42.0808H61.7214V42.3082H61.5746V42.0808ZM61.8145 39.9159V39.5435C61.8897 39.7225 61.9596 39.8729 62.0258 39.9965C61.9619 39.9549 61.8899 39.9275 61.8145 39.9159ZM60.5987 38.3276V38.2041L60.8011 38.0984L60.8494 38.222L60.5987 38.3276ZM56.7704 41.8605L56.7292 41.993L56.9477 42.0969L56.9978 41.9751L56.7704 41.8605ZM57.7839 41.814C57.7762 41.9423 57.7503 42.0689 57.7069 42.19C57.6661 42.3014 57.6397 42.4175 57.6281 42.5356C57.6289 42.5072 57.638 42.4798 57.6542 42.4565C57.6704 42.4333 57.6931 42.4153 57.7194 42.4049L57.8985 42.5839C58.0114 42.4011 58.1056 42.2073 58.1796 42.0056C58.105 42.0036 58.0316 41.9868 57.9636 41.9561C57.8957 41.9253 57.8345 41.8812 57.7839 41.8265V41.814ZM64.855 42.5141C64.6353 42.5857 64.4026 42.791 64.1567 43.1301C64.0224 43.3485 63.8863 43.5652 63.743 43.789C63.6786 43.746 63.6463 43.6332 63.6463 43.4559C63.441 43.6075 63.1957 43.6953 62.9408 43.7084C62.7403 43.7084 62.64 43.4219 62.64 42.8489C62.64 42.4908 62.7946 41.7525 63.1038 40.6339C63.3855 39.6396 63.6559 38.7831 63.9149 38.0644H63.3777C63.3115 38.0644 63.1109 38.1611 62.7671 38.3724C62.3159 38.6482 62.0008 38.8254 61.8271 38.9096L61.3257 38.3491C61.2193 38.2238 61.0871 38.123 60.9382 38.0534C60.7892 37.9839 60.627 37.9473 60.4626 37.9462C60.4304 37.9462 60.132 38.0405 59.5673 38.2292C59.7553 38.6088 59.8538 38.8004 59.8592 38.8057L60.0848 38.6428C60.1573 38.587 60.2443 38.5534 60.3355 38.5461C60.9634 38.5461 61.2774 39.1328 61.2774 40.3063C61.2542 40.4531 61.2019 40.5937 61.1234 40.7199C60.9837 40.9849 60.8995 41.155 60.8709 41.2302C60.733 41.608 60.6292 41.8927 60.5647 42.0825C60.6399 42.1363 60.6578 42.1828 60.6113 42.2186C60.6113 42.2186 60.3725 42.5081 59.895 43.0871C59.5715 43.4882 59.2605 43.6887 58.9621 43.6887C58.7416 43.6825 58.5312 43.5952 58.3712 43.4434C58.4625 43.5365 58.4751 43.6225 58.4034 43.6887C58.2525 43.5583 58.157 43.3751 58.1366 43.1766C58.1151 42.9976 58.0954 42.831 58.0793 42.6573C58.002 42.7144 57.9403 42.7902 57.9003 42.8776C57.8652 42.9652 57.8023 43.0388 57.7212 43.0871C57.5802 42.9972 57.4189 42.9442 57.2521 42.9331C57.3434 43.0244 57.3273 43.1318 57.2019 43.259C57.1365 43.1464 57.0854 43.0261 57.0497 42.9009C57.0269 42.8135 56.9719 42.7381 56.8957 42.6896L57.0247 42.5606C57.1374 42.6303 57.2575 42.6873 57.3828 42.7307C57.3846 42.4036 57.4618 42.0813 57.6084 41.7889C57.6073 41.8554 57.5819 41.9191 57.5368 41.9679C57.4667 41.8625 57.4375 41.7352 57.4544 41.6098C57.4118 41.6858 57.3474 41.7472 57.2695 41.7861C57.1916 41.8251 57.1038 41.8398 57.0175 41.8283C57.0497 41.8283 57.0855 41.8587 57.1303 41.9196C57.158 41.9785 57.1935 42.0333 57.236 42.0825L57.1231 42.2186C57.1231 42.1739 57.0175 42.1524 56.8062 42.1524C56.8993 42.2455 56.9154 42.3207 56.8546 42.3798C56.8546 42.3798 56.7847 42.2616 56.6594 42.0396C56.6152 41.9529 56.5484 41.8799 56.466 41.8283C56.5897 41.7874 56.7177 41.761 56.8474 41.7495C56.8975 41.5257 56.9763 41.4236 57.0891 41.4397C57.1097 41.4551 57.1265 41.4751 57.138 41.4981C57.1495 41.5211 57.1554 41.5465 57.1554 41.5722C57.1554 41.6134 57.1804 41.6224 57.2449 41.5937C57.3208 41.5573 57.4027 41.5354 57.4866 41.5292C57.6121 41.5399 57.7287 41.5982 57.8125 41.6922C57.8099 41.654 57.8099 41.6158 57.8125 41.5776C57.8148 41.4176 57.86 41.2612 57.9432 41.1246C57.9916 41.0422 58.0435 40.9616 58.0972 40.881L57.9182 40.702C57.9621 40.6688 58.014 40.6478 58.0686 40.6411C58.1231 40.6352 58.1751 40.6148 58.219 40.582L58.3246 40.6823C58.3676 40.7235 58.4052 40.7557 58.4392 40.7826C58.2998 40.8733 58.1808 40.9923 58.0901 41.1317C57.9951 41.2426 57.933 41.3778 57.911 41.5221C57.9087 41.5847 57.9191 41.6471 57.9416 41.7056C57.964 41.764 57.9981 41.8174 58.0417 41.8623C58.1035 41.7931 58.1718 41.7301 58.2459 41.6743C58.2459 41.3681 58.4016 40.8578 58.715 40.1523C58.715 40.2758 58.6434 40.3313 58.5055 40.3313C58.5198 40.095 58.6971 39.8121 59.0427 39.4862C59.3883 39.1603 59.5494 38.9203 59.5494 38.7699C59.5381 38.659 59.5052 38.5514 59.4527 38.453C59.4034 38.3685 59.37 38.2756 59.3542 38.179C58.1008 38.789 57.501 39.3023 57.5547 39.7189C57.5207 39.6855 57.4949 39.6447 57.4794 39.5997C57.4638 39.5546 57.459 39.5066 57.4652 39.4593C57.4383 39.4969 57.3165 39.6384 57.107 39.898C56.987 40.0297 56.8885 40.1796 56.8152 40.3421C56.8152 40.3976 56.8725 40.4835 56.9942 40.6017C56.8747 40.6375 56.7636 40.697 56.6676 40.7767C56.5716 40.8563 56.4927 40.9546 56.4356 41.0655C56.3693 41.2714 56.3084 41.4737 56.2565 41.6743C56.3586 41.5704 56.4087 41.5794 56.4087 41.6976C56.372 41.716 56.3408 41.7437 56.3182 41.7779C56.2955 41.8122 56.2823 41.8518 56.2798 41.8927C56.269 41.9787 56.2798 42.0217 56.321 42.0217C56.3621 42.0217 56.4087 42.0575 56.4087 42.1273C56.1777 42.2777 56.0613 42.5445 56.0613 42.9223C56.0796 43.0838 56.1101 43.2436 56.1526 43.4004C56.2046 43.5887 56.2364 43.782 56.2475 43.977C56.3416 43.9747 56.435 43.9939 56.5206 44.0329C56.6062 44.072 56.6818 44.1301 56.7417 44.2026C56.6802 44.2929 56.6263 44.3881 56.5806 44.4873C56.7196 44.4397 56.8639 44.4096 57.0103 44.3978C56.9619 44.4575 56.9332 44.5306 56.928 44.6073C56.928 44.7165 57.0157 44.8222 57.1876 44.9242L57.424 45.1033C57.7368 45.0433 58.0574 45.0348 58.373 45.0782C58.3273 45.0423 58.2898 44.997 58.2629 44.9455C58.2361 44.8939 58.2205 44.8372 58.2172 44.7792C58.2149 44.7293 58.2248 44.6796 58.246 44.6344C58.2672 44.5891 58.2991 44.5497 58.339 44.5196C58.2602 44.5035 58.2172 44.4676 58.2172 44.405C58.2332 44.3157 58.2667 44.2306 58.3157 44.1543C58.3634 44.0757 58.4013 43.9915 58.4285 43.9036C58.466 43.9504 58.4967 44.0022 58.5198 44.0576C58.5503 44.1167 58.5825 44.1453 58.6147 44.1453C58.6147 44.0379 58.6559 43.9842 58.7365 43.9842C58.7902 44.054 58.8421 44.1238 58.8905 44.1955C58.8905 44.2993 58.903 44.4032 58.9084 44.5106L58.7293 44.3495C58.792 44.4127 58.8305 44.4959 58.838 44.5846C58.8455 44.6733 58.8216 44.7618 58.7705 44.8347C58.9261 44.7188 59.0627 44.5792 59.1752 44.4211C59.2289 44.4712 59.2773 44.4784 59.322 44.4462C59.1931 44.3771 59.0729 44.293 58.9639 44.1955L59.0212 43.9036C59.2003 43.9842 59.3292 44.0343 59.3954 44.0576C59.3954 44.1435 59.3399 44.1865 59.2253 44.1865C59.2645 44.2319 59.3129 44.2684 59.3672 44.2937C59.4215 44.319 59.4806 44.3325 59.5405 44.3333L60.7097 42.874C60.7525 43.1372 60.7794 43.4026 60.7903 43.669C60.7908 43.8845 60.8173 44.0991 60.8691 44.3083C61.075 44.8455 61.4385 45.1033 61.9578 45.1033C62.4323 45.1033 62.9122 44.9028 63.3903 44.5035C63.8737 44.0701 64.3644 43.635 64.8568 43.1981L64.855 42.5141ZM57.8 44.7058L57.7516 44.8258L58.0596 44.9798L58.1098 44.858L57.8 44.7058ZM62.341 44.5267L62.1386 44.6234V44.7506L62.3893 44.6431L62.341 44.5267ZM51.5096 42.1542C51.4154 42.1337 51.3283 42.0886 51.2571 42.0235C51.2679 42.0145 51.309 41.9518 51.3878 41.8444C51.4415 41.7746 51.4863 41.7387 51.5239 41.7387C51.5079 41.879 51.5031 42.0203 51.5096 42.1613V42.1542ZM52.3512 40.8972L52.2223 40.8399L52.344 40.6053L52.4729 40.6519L52.3512 40.8972ZM52.6842 40.7826L52.5786 40.3528H52.7415L52.8472 40.7826H52.6842ZM53.0979 40.1917V40.0538L53.3074 39.9392L53.3575 40.0699L53.0979 40.1917ZM55.4489 34.9022C55.4489 36.3932 54.7219 38.0173 53.268 39.7745C53.5067 38.5377 53.7067 37.6293 53.8678 37.0491C54.1304 36.0944 54.5118 35.1764 55.0031 34.3167C55.1643 34.3253 55.317 34.3921 55.4328 34.5047C55.4436 34.6336 55.4489 34.7661 55.4489 34.9022ZM52.1417 44.4694C52.1417 44.4539 52.0951 43.857 52.002 42.6788C51.9101 41.4517 51.8647 40.5486 51.8659 39.9696C51.8536 39.9708 51.8418 39.9752 51.8317 39.9825C51.8216 39.9897 51.8137 39.9995 51.8086 40.0108C51.7925 40.0395 51.737 40.052 51.6475 40.052C51.5579 40.052 51.5024 40.0108 51.4935 39.9302C51.5024 40.0323 51.5078 39.9696 51.5078 39.7512C51.583 39.6831 51.6689 39.6939 51.7603 39.7852C51.7603 39.6276 51.7424 39.3841 51.7066 39.051C51.6707 38.718 51.6546 38.4763 51.6546 38.3258C51.515 38.9227 51.3741 39.5196 51.232 40.1165C50.9939 41.1568 50.8739 41.8677 50.8739 42.2652C50.874 42.7563 50.9532 43.2443 51.1085 43.7102C51.3413 44.3739 51.6851 44.7708 52.1399 44.901L52.1417 44.4694ZM55.1177 43.1891C54.5494 43.5938 54.1388 43.7962 53.8857 43.7962C53.7488 43.7956 53.6144 43.7599 53.4954 43.6923C53.407 43.6362 53.2524 43.4076 53.0316 43.0065C52.8108 42.6054 52.7003 42.3362 52.7003 42.1989C52.6952 41.7939 52.7958 41.3946 52.9922 41.0404C53.1674 40.812 53.3595 40.5971 53.567 40.3976C53.5783 40.3037 53.5813 40.2091 53.576 40.1147C53.5739 40.0695 53.5814 40.0245 53.5981 39.9825C53.6148 39.9405 53.6402 39.9026 53.6726 39.8711C53.7765 39.8711 53.8266 39.9338 53.8266 40.0502C53.9461 39.8487 54.0241 39.6252 54.0558 39.3931C54.1472 39.3931 54.1919 39.4575 54.1919 39.5864C54.7376 38.8648 55.1855 38.0743 55.5241 37.2354C55.8628 36.4509 56.0499 35.6094 56.0756 34.7554C56.0756 33.8398 55.9073 33.3826 55.5707 33.3838C55.2434 33.4217 54.9222 33.5005 54.6145 33.6183C54.199 33.7305 53.8055 33.9121 53.4506 34.1555C53.183 34.4005 52.9805 34.7081 52.8615 35.0508C52.7421 35.3875 52.615 35.7253 52.4801 36.0643C52.0814 37.0193 51.882 37.695 51.882 38.0913C51.882 38.1629 51.9035 38.3545 51.9447 38.6679C51.978 38.8695 52.0007 39.0727 52.0127 39.2767C52.0127 39.2444 52.0432 39.2068 52.1094 39.1621C52.1662 39.1281 52.2206 39.0904 52.2724 39.0493C52.2848 39.1069 52.2814 39.1668 52.2625 39.2226C52.2435 39.2784 52.2098 39.328 52.165 39.3662L51.9948 39.479C51.9787 39.8837 51.9698 40.1523 51.9698 40.2812C51.9698 40.3313 52.0217 40.9455 52.1256 42.1327C52.2378 43.4351 52.3106 44.3805 52.344 44.969H53.1874C53.5061 44.969 54.06 44.7064 54.8491 44.1811C55.6119 43.6798 56.0685 43.2966 56.2207 43.0387C56.2637 42.9582 56.2637 42.6645 56.2207 42.156C55.9134 42.5586 55.5405 42.9066 55.1177 43.1856V43.1891ZM42.6944 44.1024L42.5888 43.8982L42.7105 43.8499L42.8162 44.1024H42.6944ZM42.4509 43.6959L42.3291 43.6404L42.4419 43.4201L42.5637 43.4685L42.4509 43.6959ZM42.6711 43.712L42.6049 43.5992L42.9039 43.3951L42.9863 43.5097L42.6711 43.712ZM43.4053 44.2062C43.372 44.2235 43.3436 44.249 43.3229 44.2804C43.3022 44.3117 43.2899 44.3478 43.2871 44.3853L42.9702 44.3602V43.7192C43.0937 43.5956 43.1904 43.5007 43.262 43.4362C43.3474 43.5589 43.385 43.7086 43.3677 43.857C43.3355 43.8248 43.2567 43.8714 43.1313 43.9949L43.262 44.1167C43.3488 44.0618 43.4521 44.039 43.5539 44.0522C43.5201 44.1186 43.4687 44.1744 43.4053 44.2134V44.2062ZM43.6989 44.131H43.8458V44.5375H43.6989V44.131ZM43.0024 43.2088L42.5476 43.0298V42.8991L43.0597 43.0925L43.0024 43.2088ZM42.4992 42.3332H42.6461V42.566H42.4992V42.3332ZM43.724 43.703L43.6202 43.4506H43.7401L43.8458 43.6529L43.724 43.703ZM44.0821 43.9788V43.8553L44.2863 43.7586L44.3364 43.8714L44.0821 43.9788ZM43.8404 43.9466C43.8429 43.8895 43.8571 43.8335 43.882 43.7821C43.907 43.7306 43.9422 43.6849 43.9854 43.6475C43.8864 43.4803 43.8361 43.2886 43.8404 43.0942C43.8881 43.1585 43.93 43.2268 43.9657 43.2984C44.0166 43.396 44.0811 43.4858 44.1573 43.5652C44.0213 43.7227 43.9156 43.8499 43.8404 43.9466ZM42.3238 41.3108H42.4706V41.5382H42.3238V41.3108ZM42.92 41.1496C42.878 41.2029 42.8464 41.2637 42.8269 41.3287C42.8175 41.2816 42.8037 41.2354 42.7857 41.1908C42.7696 41.1443 42.7857 41.1192 42.8108 41.1192L43.0131 40.9401C42.9969 41.0118 42.9651 41.079 42.92 41.1371V41.1496ZM43.4769 40.8363L43.6452 40.6429C43.565 40.5746 43.478 40.5146 43.3856 40.4638C43.4425 40.4671 43.4985 40.4786 43.5521 40.4979C43.6057 40.5176 43.6617 40.5303 43.7186 40.5355C43.7142 40.6052 43.6888 40.672 43.6456 40.727C43.6024 40.782 43.5436 40.8226 43.4769 40.8434V40.8363ZM43.7849 40.4459H43.9317V40.6715H43.7849V40.4459ZM43.7849 40.0162H43.9317V40.3331H43.7849V40.0162ZM46.435 42.5857H46.58V42.9026H46.435V42.5857ZM47.547 42.0754H47.692V42.3028H47.547V42.0754ZM47.7941 39.9159V39.5435C47.8693 39.7225 47.9391 39.8729 48.0054 39.9965C47.9414 39.9549 47.8694 39.9275 47.7941 39.9159ZM46.5782 38.3276V38.2041L46.7806 38.0984L46.8289 38.222L46.5782 38.3276ZM42.7499 41.8605L42.7105 41.993L42.929 42.0969L42.9773 41.9751L42.7499 41.8605ZM43.7634 41.814C43.7557 41.9423 43.7298 42.0689 43.6864 42.19C43.646 42.3014 43.6201 42.4175 43.6094 42.5356C43.6103 42.5075 43.6192 42.4803 43.635 42.4571C43.6509 42.4339 43.6731 42.4158 43.6989 42.4049L43.878 42.5839C43.9914 42.4011 44.0862 42.2073 44.1609 42.0056C44.086 42.0039 44.0123 41.9872 43.944 41.9564C43.8757 41.9256 43.8143 41.8815 43.7634 41.8265V41.814ZM50.8345 42.5141C50.6125 42.5857 50.3815 42.7916 50.1362 43.1301C50.0019 43.3485 49.864 43.5652 49.7243 43.789C49.6581 43.746 49.6277 43.6332 49.6277 43.4559C49.4221 43.607 49.1769 43.6947 48.9222 43.7084C48.7216 43.7084 48.6213 43.4219 48.6213 42.8489C48.6213 42.4908 48.7747 41.7525 49.0815 40.6339C49.3662 39.6402 49.633 38.7825 49.8945 38.0644H49.3573C49.2928 38.0644 49.0887 38.1611 48.7485 38.3724C48.2954 38.6482 47.9821 38.8254 47.8084 38.9096C47.6419 38.7305 47.4736 38.5389 47.3052 38.3491C47.1964 38.2273 47.0628 38.1302 46.9133 38.0644C46.7638 37.9986 46.6019 37.9656 46.4386 37.9677C46.4046 37.9677 46.1055 38.0626 45.5433 38.2506C45.7331 38.6303 45.828 38.8218 45.8351 38.8272L46.0626 38.6643C46.1347 38.6079 46.2219 38.5743 46.3132 38.5676C46.94 38.5676 47.2533 39.1543 47.2533 40.3278C47.2312 40.4748 47.1787 40.6156 47.0993 40.7414C47.0072 40.9072 46.9235 41.0775 46.8486 41.2517C46.7072 41.6295 46.6051 41.9142 46.5389 42.104C46.6158 42.1578 46.632 42.2043 46.589 42.2401C46.589 42.2401 46.3502 42.5296 45.8727 43.1086C45.5486 43.5097 45.2371 43.7102 44.9416 43.7102C44.7212 43.704 44.5108 43.6167 44.3507 43.4649C44.4403 43.558 44.451 43.644 44.3812 43.7102C44.2302 43.5798 44.1348 43.3966 44.1144 43.1981C44.0929 43.019 44.0732 42.8525 44.0571 42.6788C43.9791 42.7353 43.9174 42.8112 43.878 42.8991C43.8417 42.9859 43.7791 43.0592 43.6989 43.1086C43.558 43.0187 43.3966 42.9657 43.2298 42.9546C43.3211 43.0459 43.305 43.1533 43.1815 43.2805C43.1138 43.1686 43.0614 43.0481 43.0257 42.9223C43.004 42.8345 42.9487 42.7586 42.8717 42.7111L43.0024 42.5821C43.1154 42.6514 43.2354 42.7085 43.3605 42.7522C43.3622 42.4249 43.44 42.1024 43.5879 41.8104C43.5872 41.8776 43.5602 41.9418 43.5127 41.9894C43.4435 41.8837 43.4148 41.7565 43.4321 41.6313C43.3894 41.7071 43.3249 41.7684 43.2471 41.8073C43.1692 41.8462 43.0815 41.861 42.9952 41.8498C43.0275 41.8498 43.0651 41.8802 43.108 41.9411C43.1355 42.0005 43.1717 42.0554 43.2155 42.104L43.1009 42.2401C43.1009 42.1954 42.9952 42.1739 42.7839 42.1739C42.8771 42.267 42.8932 42.3422 42.8323 42.4013C42.8323 42.4013 42.7625 42.2831 42.6389 42.0611C42.5931 41.975 42.5259 41.9022 42.4437 41.8498C42.5675 41.8091 42.6954 41.7826 42.8251 41.771C42.8735 41.5472 42.9558 41.4451 43.0687 41.4612C43.0882 41.4775 43.104 41.4977 43.1151 41.5205C43.1263 41.5434 43.1324 41.5683 43.1331 41.5937C43.1331 41.6349 43.1582 41.6438 43.2226 41.6152C43.299 41.5786 43.3817 41.5567 43.4662 41.5507C43.5904 41.5623 43.7056 41.6205 43.7885 41.7137C43.7858 41.6755 43.7858 41.6372 43.7885 41.5991C43.7903 41.4393 43.8348 41.2829 43.9174 41.1461C43.964 41.0637 44.0159 40.9831 44.0696 40.9025L43.9013 40.7235C43.9444 40.6889 43.9967 40.6678 44.0517 40.6626C44.1057 40.6568 44.1571 40.6363 44.2003 40.6035L44.306 40.7038C44.3489 40.745 44.3865 40.7772 44.4206 40.8041C44.2783 40.8944 44.1564 41.0133 44.0624 41.1532C43.9707 41.2649 43.9123 41.4002 43.8941 41.5436C43.8914 41.6062 43.9016 41.6688 43.9241 41.7273C43.9466 41.7858 43.9809 41.8391 44.0248 41.8838C44.086 41.8153 44.1531 41.7524 44.2254 41.6958C44.2254 41.3896 44.383 40.8793 44.6981 40.1738C44.6981 40.2973 44.6265 40.3528 44.485 40.3528C44.5011 40.1165 44.6784 39.8335 45.0222 39.5077C45.366 39.1818 45.529 38.9418 45.529 38.7914C45.5185 38.6803 45.4856 38.5725 45.4323 38.4745C45.3829 38.39 45.3495 38.2971 45.3338 38.2005C44.0803 38.8105 43.4799 39.3238 43.5324 39.7404C43.4991 39.7066 43.4739 39.6657 43.4587 39.6207C43.4435 39.5757 43.4387 39.5279 43.4447 39.4808C43.4196 39.5184 43.2961 39.6599 43.0866 39.9195C42.9662 40.0513 42.8671 40.2012 42.7929 40.3636C42.7929 40.4191 42.8502 40.505 42.972 40.6232C42.8521 40.6587 42.7406 40.718 42.6443 40.7977C42.5479 40.8774 42.4688 40.9758 42.4115 41.087C42.347 41.2929 42.2826 41.4952 42.2235 41.6958C42.3273 41.5919 42.3793 41.6009 42.3793 41.7191C42.3424 41.7374 42.3109 41.765 42.2879 41.7993C42.265 41.8335 42.2514 41.8731 42.2486 41.9142C42.2378 42.0002 42.2521 42.0432 42.2915 42.0432C42.3488 42.0432 42.3793 42.079 42.3793 42.1488C42.1465 42.2992 42.0301 42.566 42.0301 42.9438C42.0484 43.1054 42.0795 43.2653 42.1232 43.4219C42.1748 43.6102 42.206 43.8035 42.2163 43.9985C42.3106 43.9965 42.4042 44.0157 42.49 44.0548C42.5759 44.0938 42.6519 44.1517 42.7123 44.2241C42.649 44.3136 42.5944 44.4089 42.5494 44.5088C42.6884 44.4615 42.8327 44.4314 42.9791 44.4193C42.9312 44.4791 42.903 44.5523 42.8985 44.6288C42.8985 44.7386 42.9845 44.8443 43.1564 44.9457L43.3928 45.1248C43.705 45.0648 44.025 45.0563 44.34 45.0997C44.2942 45.0642 44.2568 45.0189 44.2305 44.9672C44.2041 44.9155 44.1896 44.8587 44.1878 44.8007C44.1844 44.7506 44.1938 44.7005 44.2151 44.6551C44.2364 44.6097 44.2689 44.5704 44.3095 44.5411C44.2254 44.5249 44.1878 44.4891 44.1878 44.4265C44.2028 44.3372 44.2357 44.252 44.2845 44.1758C44.3322 44.0971 44.3701 44.013 44.3973 43.9251C44.4347 43.9716 44.4649 44.0236 44.4868 44.0791C44.519 44.1382 44.5513 44.1668 44.5835 44.1668C44.5835 44.0594 44.6247 44.0057 44.7053 44.0057C44.759 44.0755 44.8109 44.1453 44.8611 44.217C44.8611 44.3208 44.8611 44.4247 44.8772 44.5321L44.6981 44.3709C44.7611 44.434 44.7998 44.5173 44.8073 44.6061C44.8149 44.6948 44.7908 44.7835 44.7393 44.8562C44.8954 44.7408 45.032 44.6012 45.144 44.4426C45.1977 44.4927 45.246 44.4999 45.2908 44.4676C45.1649 44.3982 45.0477 44.3141 44.9416 44.217L44.9971 43.9251C45.1762 44.0057 45.3051 44.0558 45.3714 44.0791C45.3714 44.165 45.3117 44.208 45.1923 44.208C45.2323 44.2533 45.2813 44.2898 45.3362 44.3151C45.391 44.3404 45.4506 44.3539 45.511 44.3548L46.6767 42.8955C46.7214 43.1584 46.7483 43.424 46.7573 43.6905C46.7594 43.9061 46.7871 44.1207 46.8397 44.3298C47.0438 44.8669 47.4073 45.1248 47.9266 45.1248C48.4041 45.1248 48.8816 44.9248 49.3591 44.5249L50.8274 43.2196L50.8345 42.5141ZM43.7795 44.7058L43.7312 44.8258L44.041 44.9798L44.0875 44.858L43.7795 44.7058ZM48.3205 44.5267L48.1182 44.6234V44.7506L48.3706 44.6431L48.3205 44.5267ZM34.0153 38.6177L33.9437 38.1056H34.0726L34.155 38.6177H34.0153ZM40.0497 37.5434C39.8981 38.5485 39.7471 39.5536 39.5967 40.5587C39.346 41.7716 38.9282 42.7003 38.3432 43.3449C37.8437 43.9237 37.2266 44.3895 36.5329 44.7112C35.9148 44.9569 35.2533 45.075 34.5883 45.0585C34.0517 45.0769 33.519 44.9599 33.0395 44.7183C32.7833 44.5933 32.5688 44.3967 32.422 44.1523C32.2752 43.9079 32.2023 43.6263 32.2122 43.3413C32.2122 43.1354 32.4109 42.8561 32.812 42.5051C33.2131 42.1542 33.4638 41.9948 33.6321 41.9948C33.6691 41.9948 33.6906 42.0056 33.6966 42.027C33.6893 42.0433 33.6797 42.0584 33.668 42.0718C33.6533 42.0864 33.6433 42.1052 33.6393 42.1255C33.6393 42.1398 33.6662 42.1506 33.7038 42.1506C33.7414 42.1506 33.7718 42.1381 33.7772 42.1184C33.7754 42.1034 33.7712 42.0889 33.7646 42.0754C33.7583 42.0625 33.7546 42.0485 33.7539 42.0342C33.7539 42.0127 33.7772 42.0038 33.8255 42.0038H34.1174C34.1579 42.1732 34.1772 42.347 34.1747 42.5212C34.1747 42.6573 34.164 42.8507 34.1425 43.1014C34.121 43.3521 34.1084 43.5311 34.1084 43.6386C34.1084 44.1817 34.3711 44.4527 34.8963 44.4515C35.794 44.4515 36.4452 43.8403 36.8499 42.6179C36.8365 42.7261 36.8626 42.8354 36.9233 42.9259C36.9497 42.9079 36.9715 42.8839 36.9871 42.8559C37.0026 42.828 37.0114 42.7967 37.0128 42.7648C37.0054 42.6913 36.9847 42.6197 36.9519 42.5535C36.918 42.4885 36.9025 42.4154 36.9072 42.3422C37.1059 41.4236 37.2653 40.7306 37.3602 40.274C37.5822 38.8308 37.7094 38.0394 37.7416 37.8997C37.8383 37.428 38.0291 36.9806 38.3026 36.5844C38.5761 36.1881 38.9267 35.851 39.3334 35.5934C39.8527 35.2156 40.2467 35.0258 40.5117 35.0258C40.6203 35.0283 40.7258 35.0628 40.8149 35.1249C40.9041 35.187 40.973 35.2739 41.013 35.3749C40.5606 35.7426 40.2389 36.4618 40.0479 37.5326L40.0497 37.5434ZM34.0959 37.2569H34.2266V37.4592H34.0959V37.2569ZM34.0153 36.8719H34.155V37.23H34.0153V36.8719ZM36.0674 38.6983C35.9952 38.4774 35.9354 38.2526 35.8883 38.025C35.9796 38.025 36.1032 38.1038 36.2608 38.2596V38.5192L36.0674 38.6983ZM39.6361 38.5515L39.5304 38.5031L39.6271 38.3079L39.7417 38.3491L39.6361 38.5515ZM41.8672 38.487V38.3814L42.0462 38.2847L42.0946 38.3975L41.8672 38.487ZM42.6192 36.0231L42.5154 35.973L42.612 35.7778L42.7266 35.819L42.6192 36.0231ZM43.1224 35.511C43.0407 35.2309 42.9234 34.9625 42.7732 34.7124C42.5941 34.4062 42.4849 34.254 42.4151 34.254C42.3452 34.254 42.3345 34.2683 42.3435 34.2934C42.3524 34.3185 42.3309 34.3346 42.2718 34.3346C42.3041 34.3346 42.2324 34.254 42.0588 34.0928C41.8112 33.8724 41.522 33.7038 41.2082 33.5969C40.6113 33.3772 40.2246 33.2668 40.0479 33.2656C39.9789 33.2712 39.9129 33.2967 39.8581 33.339C39.8026 33.3798 39.7369 33.4046 39.6683 33.4106C39.5522 33.3981 39.4377 33.3741 39.3263 33.339C39.2134 33.3022 39.097 33.2776 38.9789 33.2656C38.0502 33.2656 37.085 33.5951 36.0835 34.254C35.1094 34.8968 34.4469 35.6167 34.0887 36.4117C34.0849 36.5935 34.037 36.7717 33.9491 36.931C33.8417 37.1953 33.7975 37.481 33.8202 37.7654C33.8929 37.7619 33.9629 37.7363 34.0207 37.692C34.0558 37.6625 34.095 37.6384 34.1371 37.6203C34.1854 37.6687 34.2051 37.7117 34.1944 37.7493C34.1912 38.0072 34.2336 38.2636 34.3197 38.5067C34.3657 38.5899 34.4001 38.6791 34.4218 38.7717C34.4218 38.8469 34.4021 38.8738 34.3645 38.8523C34.3089 38.8221 34.2482 38.8027 34.1854 38.795C34.4236 39.0331 34.5883 39.1531 34.6796 39.1531C34.8408 39.1531 35.2634 39.0188 35.9438 38.7484C35.8698 38.4869 35.81 38.2215 35.7648 37.9534C35.685 37.8447 35.5977 37.7417 35.5033 37.6454C35.3905 37.5219 35.3243 37.2873 35.3243 36.9399C35.3243 36.2237 35.7558 35.5361 36.6135 34.8485C37.4253 34.1991 38.1827 33.8744 38.8858 33.8744C39.6844 33.8744 40.2932 33.9639 40.7086 34.1412C41.407 34.4504 41.7561 35.024 41.7561 35.862C41.7559 36.3168 41.6703 36.7674 41.5037 37.1906C41.3496 37.4929 41.1648 37.7786 40.9522 38.0429C40.6716 38.4213 40.5314 38.6404 40.5314 38.7001C40.5314 38.8123 40.6209 38.9179 40.8 39.017C40.9522 39.1057 41.1251 39.1527 41.3013 39.1531C41.4804 39.1531 41.7723 38.9973 42.1966 38.6786C42.621 38.3599 42.8287 38.1128 42.8287 37.9301C42.8227 37.8559 42.8007 37.7838 42.7643 37.7188C42.732 37.6636 42.7102 37.6029 42.6998 37.5398C42.701 37.5165 42.7091 37.494 42.7231 37.4753L42.9594 37.7349C43.1803 37.0187 43.2907 36.5615 43.2907 36.3633C43.2591 36.0746 43.1991 35.7897 43.1116 35.5128L43.1224 35.511ZM41.6397 37.649C41.5189 37.721 41.4111 37.8131 41.321 37.9212C41.4714 37.7761 41.5824 37.7009 41.6523 37.7009C41.7723 37.7009 41.8313 37.726 41.8313 37.7761C41.829 37.7272 41.8363 37.6783 41.8529 37.6322C41.8695 37.5861 41.895 37.5438 41.928 37.5075C41.9065 37.4914 41.8152 37.538 41.6487 37.649H41.6397ZM33.9616 43.3539L33.7038 43.2661L33.6644 43.37L33.9616 43.4685V43.3539ZM37.1417 43.071H37.0057L37.0844 43.5813H37.2152L37.1417 43.071ZM37.2563 42.4622L37.0773 42.8668L37.1919 42.917L37.362 42.4622H37.2563ZM41.6612 38.7484L41.4822 38.838V38.9508L41.7114 38.8541L41.6612 38.7484Z" fill="white"/>
<path d="M58.493 27.4228L58.3551 27.3673L58.475 27.1148L58.6129 27.1632L58.493 27.4228ZM58.6452 24.2606H58.8081V24.6187H58.6452V24.2606ZM59.5405 23.872L59.4097 23.8165L59.5315 23.573L59.6694 23.6195L59.5405 23.872ZM61.4134 24.0099C61.4134 23.8487 61.4475 23.7664 61.5173 23.7664C61.5782 23.8649 61.6355 23.9114 61.6964 23.9114C61.5066 23.9114 61.4134 23.9454 61.4134 24.0099ZM60.3176 22.5094V22.0563C60.3391 22.0563 60.3588 22.085 60.3785 22.1441C60.3982 22.2032 60.4519 22.2354 60.545 22.2354C60.6066 22.244 60.6693 22.2327 60.7241 22.2032C60.7403 22.1839 60.7634 22.1717 60.7885 22.1692C60.5611 22.3966 60.4071 22.5094 60.3265 22.5094H60.3176ZM62.4627 25.3564C62.4216 25.3045 62.418 25.1398 62.452 24.8694C62.4089 24.7936 62.3539 24.7253 62.289 24.6671C62.2485 24.3499 62.1145 24.0519 61.9041 23.8111C61.7699 23.6681 61.6544 23.5087 61.5603 23.3366C61.5603 23.2614 61.5603 23.1307 61.5352 22.9409C61.5152 22.8004 61.5068 22.6584 61.5101 22.5165C61.52 22.5486 61.5338 22.5792 61.5513 22.6079C61.5086 22.6151 61.4651 22.6151 61.4224 22.6079C61.4009 22.6079 61.3669 22.5255 61.3239 22.3625C61.2741 22.1749 61.1551 22.013 60.9909 21.9095C61.0261 21.9388 61.0535 21.9764 61.0707 22.0189C61.0879 22.0614 61.0943 22.1075 61.0893 22.153C61.0804 22.3106 61.0415 22.4649 60.9747 22.6079C60.8544 22.3697 60.7802 22.1108 60.7563 21.8451C60.6584 21.9132 60.5464 21.9585 60.4286 21.9776C60.259 22.021 60.1032 22.1066 59.9756 22.2265C59.931 22.1685 59.8987 22.1021 59.8807 22.0313C59.5917 22.7414 59.2318 23.4205 58.8063 24.0582C58.3158 24.8331 57.7339 25.5461 57.073 26.1819V26.9214C57.942 26.3055 58.4363 25.6023 58.5556 24.8121L58.6935 24.941C58.6452 24.941 58.6201 25.0592 58.6201 25.2991C59.3614 24.3752 59.7464 23.8953 59.7804 23.8667L60.0812 24.5381C60.5587 23.6894 60.9419 23.0495 61.2308 22.6186C61.2648 22.6437 61.2809 22.7099 61.2809 22.812C61.2809 22.9731 61.1538 23.1862 60.8995 23.4459C61.0716 23.5168 61.2326 23.612 61.3776 23.7288C61.2753 23.8833 61.1249 23.9997 60.9497 24.06C60.9072 24.001 60.874 23.9357 60.8512 23.8667C60.8286 23.7955 60.7927 23.7293 60.7455 23.6715C60.5681 24.0595 60.3616 24.4336 60.1278 24.7906C60.3116 24.8921 60.5175 25.169 60.7455 25.6214C60.9354 25.9507 61.0515 26.3173 61.0858 26.6958C61.0635 27.0567 60.9108 27.3972 60.656 27.6538C60.5376 27.81 60.3862 27.9382 60.2126 28.0292C60.0389 28.1202 59.8473 28.1718 59.6515 28.1802C59.3381 28.1802 59.1018 28.0012 58.946 27.6216C58.7514 27.1441 58.6243 26.8844 58.5646 26.8426H58.2387C58.2136 26.8695 58.1259 26.9769 57.9791 27.165C57.8824 27.2903 57.8 27.353 57.7284 27.353C57.7871 27.3913 57.836 27.4428 57.8711 27.5035C57.9063 27.5641 57.9267 27.6322 57.9307 27.7021C57.9309 27.7941 57.8999 27.8834 57.8426 27.9553C57.7853 28.0272 57.7052 28.0775 57.6156 28.0979C57.6305 27.9324 57.619 27.7655 57.5815 27.6037C57.4502 27.7522 57.376 27.9426 57.372 28.1408C57.3704 28.3 57.4285 28.454 57.535 28.5724C57.8352 28.2084 58.1092 27.8237 58.3551 27.421L58.5001 27.5661C58.142 28.0782 57.8913 28.4614 57.7284 28.7264C58.0682 28.9127 58.4447 29.0227 58.8314 29.0487C59.7231 29.0487 60.5623 28.6571 61.349 27.874C62.1357 27.0909 62.529 26.2667 62.529 25.4012C62.529 25.4281 62.5093 25.4119 62.4681 25.36L62.4627 25.3564ZM61.3293 21.7931C61.3615 21.7931 61.3973 21.8415 61.4331 21.922C61.469 22.0026 61.5065 22.0438 61.5406 22.0438C61.5843 21.9631 61.622 21.8793 61.6534 21.7931H61.3293ZM57.6639 28.1981H57.5027V28.456H57.6639V28.1981ZM55.175 22.8711L54.6235 22.6347V22.513L55.2233 22.7493L55.175 22.8711ZM55.7981 23.3975L55.4811 23.0842C55.5505 23.0923 55.6193 23.1048 55.6871 23.1218C55.7575 23.1402 55.8294 23.1528 55.9019 23.1594C55.8482 23.2278 55.812 23.3083 55.7963 23.3939L55.7981 23.3975ZM55.6907 27.5607C55.3122 27.1835 55.123 26.8641 55.123 26.6027C55.123 26.3723 55.4394 25.3099 56.0721 23.4154C56.0127 23.4138 55.9557 23.3917 55.9109 23.3527C56.0051 23.2954 56.0849 23.2172 56.1439 23.124C56.2029 23.0308 56.2396 22.9253 56.2511 22.8156C56.2939 22.5177 56.3646 22.2245 56.4624 21.94C56.2833 21.965 55.9485 22.0331 55.44 22.1405C55.1916 22.1988 54.9398 22.2419 54.6861 22.2694C54.6109 22.2694 54.5751 22.2873 54.5805 22.3196C54.5886 22.3543 54.5886 22.3905 54.5805 22.4252C54.5805 22.4377 54.5697 22.4413 54.5626 22.4413C54.521 22.3872 54.4883 22.3267 54.4659 22.2623C54.4659 22.4646 54.4139 22.5649 54.3047 22.5649C54.3326 22.5656 54.3597 22.5742 54.3828 22.5897C54.406 22.6053 54.4242 22.6271 54.4354 22.6526C54.2958 22.7225 54.1364 22.957 53.9645 23.351C53.8641 23.5454 53.7906 23.7526 53.746 23.9669V24.2445C53.8083 24.2449 53.8685 24.267 53.9162 24.3071C53.4506 24.8002 53.2178 25.7086 53.2178 27.0324C53.2178 28.416 53.6237 29.1084 54.4354 29.1096C54.7501 29.0952 55.054 28.9908 55.311 28.8087C55.474 28.6995 55.7712 28.4631 56.2063 28.0925C56.9309 27.4765 57.2932 26.9358 57.2932 26.4702C57.2932 26.3967 57.2848 26.3234 57.2682 26.2517C56.7902 26.7381 56.2627 27.1732 55.6942 27.5499L55.6907 27.5607ZM56.5788 19.0768C56.5022 18.9709 56.4027 18.8836 56.2877 18.8216C56.1726 18.7596 56.045 18.7244 55.9145 18.7187C55.79 18.723 55.6677 18.7529 55.5553 18.8065C55.4428 18.8601 55.3426 18.9362 55.2609 19.0302C55.1703 19.1123 55.0969 19.2115 55.045 19.3222C54.9931 19.4329 54.9636 19.5527 54.9583 19.6748C54.9583 20.0491 55.1982 20.3642 55.6745 20.6239H55.9395C56.0604 20.617 56.1785 20.5845 56.2859 20.5287C56.3933 20.4728 56.4876 20.3948 56.5627 20.2998C56.6538 20.2272 56.7277 20.1352 56.7787 20.0305C56.8298 19.9257 56.8568 19.8109 56.8579 19.6944C56.8589 19.5779 56.8339 19.4626 56.7847 19.357C56.7355 19.2514 56.6633 19.1581 56.5734 19.0839L56.5788 19.0768ZM46.854 21.3491C46.6912 21.0528 46.6022 20.7218 46.5944 20.3839C46.613 20.0836 46.6789 19.7881 46.7895 19.5083C46.9525 19.0624 47.1477 18.8153 47.35 18.7706L47.2121 19.0893C47.1369 19.1197 47.1584 19.1932 47.2766 19.3078C47.4222 20.5397 47.5165 21.4911 47.5595 22.162C47.2567 21.958 47.0133 21.6776 46.854 21.3491ZM48.1916 20.8119L48.0877 20.7725L48.1773 20.52H48.2865L48.1916 20.8119ZM47.8854 20.366L47.7797 20.3195L47.8764 20.1225L47.9892 20.1637L47.8854 20.366ZM48.0877 19.5316H48.2184V19.8897H48.0877V19.5316ZM48.4924 19.451L48.3868 19.4098L48.4852 19.2146L48.5909 19.2487L48.4924 19.451ZM49.1334 17.9254C49.084 17.8875 49.0326 17.8522 48.9794 17.8198C48.9132 17.7768 48.8828 17.7428 48.8828 17.7141C48.9437 17.7075 49.0037 17.6943 49.0618 17.6747C49.1199 17.6549 49.1799 17.6411 49.2409 17.6335C49.2444 17.6868 49.2368 17.7403 49.2186 17.7905C49.2004 17.8408 49.172 17.8867 49.1352 17.9254H49.1334ZM51.2428 18.1779L50.9044 17.8287L50.9831 17.7571L51.3162 18.0955L51.2428 18.1779ZM52.2885 18.6972L52.1828 18.647L52.2813 18.4518L52.387 18.493L52.2885 18.6972ZM47.0098 20.6668H46.8719V21.016H47.0098V20.6668ZM52.8454 18.4017C52.8254 18.3434 52.8104 18.2835 52.8006 18.2227L52.5983 18.3766C52.354 17.9509 51.9862 17.6094 51.5436 17.3972C51.5491 17.5785 51.5038 17.7577 51.4129 17.9147C51.3582 17.8425 51.3247 17.7565 51.3161 17.6664C51.3076 17.5762 51.3244 17.4855 51.3645 17.4043L51.0333 17.4616C50.7639 17.3693 50.4818 17.3198 50.1971 17.3148C50.0157 17.3241 49.8388 17.3743 49.6796 17.4616C49.6402 17.4205 49.5934 17.3871 49.5417 17.3632C49.5256 17.3632 49.5256 17.4097 49.5417 17.501C49.567 17.6186 49.5773 17.739 49.5721 17.8592C49.4628 17.7476 49.3727 17.6187 49.3053 17.4778C48.6186 17.7315 47.9839 18.1083 47.4324 18.5897C47.5057 18.5868 47.5767 18.5625 47.6365 18.5199C47.6731 18.4913 47.7135 18.4678 47.7565 18.4501C47.7976 18.5002 47.8175 18.5645 47.812 18.6291C47.7179 18.6948 47.641 18.7821 47.5877 18.8837C47.5344 18.9853 47.5063 19.0981 47.5058 19.2129L47.7403 22.3106C47.9209 22.3925 48.0967 22.4845 48.2668 22.5864C48.2252 22.6206 48.175 22.6429 48.1217 22.6508C48.0717 22.6579 48.0242 22.6776 47.9839 22.7081C47.8693 22.7457 47.8048 22.8979 47.8048 23.1629C47.7977 23.3453 47.8371 23.5265 47.9194 23.6894C47.9678 23.564 48.1468 23.4315 48.4566 23.2919C48.7019 23.1665 48.9711 23.0951 49.2462 23.0824C49.3839 23.0946 49.5201 23.1204 49.6527 23.1594C49.7827 23.1961 49.9158 23.2213 50.0502 23.2346C50.2293 23.2346 50.3654 23.1253 50.48 22.9033C50.5676 22.7376 50.6148 22.5535 50.6179 22.3661C50.6179 22.1512 50.5785 22.042 50.5033 22.042C50.477 22.042 50.4448 22.0635 50.4066 22.1065C49.954 22.0957 49.5189 21.9294 49.1746 21.6356C48.8876 21.4422 48.6802 21.1516 48.5909 20.8172L48.7216 20.3248C48.7151 20.2594 48.7121 20.1936 48.7126 20.1279C48.7126 19.599 48.9609 19.0857 49.4575 18.5879C49.8031 18.2961 50.1505 18.0006 50.4961 17.7034C50.5235 17.8227 50.6429 17.9421 50.8542 18.0615C51.0079 18.138 51.1477 18.2397 51.2678 18.3623C51.42 18.6781 51.5446 19.0064 51.6403 19.3436C51.7424 19.6677 51.8695 19.8288 52.0199 19.8288C52.0508 19.8282 52.0816 19.8234 52.1112 19.8145C52.3046 19.5853 52.5016 19.3597 52.7021 19.1323C52.8191 18.9971 52.8828 18.824 52.8812 18.6452C52.8766 18.5642 52.8616 18.4842 52.8364 18.4071L52.8454 18.4017ZM48.7932 17.9236L48.6894 17.9559L48.7771 18.2155H48.8917L48.7932 17.9236ZM46.9614 27.951H46.8236L46.8629 28.3808H47.0008L46.9614 27.951ZM47.6025 28.6333H47.4718V28.9162H47.6025V28.6333ZM48.2417 28.7228C48.1741 28.6563 48.1211 28.5764 48.0863 28.4882C48.0514 28.4 48.0354 28.3054 48.0394 28.2107C48.0233 27.9671 48.0071 27.729 47.991 27.4944L47.7493 28.4685C47.5916 28.4379 47.4317 28.4193 47.2712 28.413C47.3337 28.3037 47.3825 28.187 47.4162 28.0656C47.461 27.9457 47.5201 27.8758 47.5953 27.8543C47.5782 28.0049 47.5782 28.1568 47.5953 28.3074C47.7166 27.9559 47.7713 27.5848 47.7565 27.2133C47.7565 27.344 47.7135 27.4085 47.6275 27.4085C47.2873 26.4797 47.1166 25.8578 47.1154 25.5427C47.1115 25.1209 47.2021 24.7037 47.3804 24.3215C47.5149 24.0762 47.6041 23.8087 47.6437 23.5318C47.6358 23.4117 47.6208 23.2921 47.5989 23.1737C47.5746 23.0466 47.5597 22.918 47.5541 22.7887C45.7432 23.333 44.8378 24.417 44.8378 26.0405C44.8378 27.2008 45.2239 27.917 45.9963 28.1892L46.4189 28.5294C46.3968 28.4667 46.3858 28.4007 46.3866 28.3342C46.3948 28.1737 46.428 28.0154 46.4851 27.8651C46.5306 27.7381 46.5676 27.6083 46.5961 27.4765V28.2769C46.6439 28.4439 46.7304 28.5973 46.8486 28.7246C46.8056 28.687 46.8486 28.5956 46.9937 28.4578C47.0192 28.577 47.0111 28.701 46.9704 28.8159H47.3285C47.3285 28.8159 47.3178 28.7729 47.2963 28.6709C47.2866 28.6464 47.2838 28.6198 47.2882 28.5939C47.2926 28.568 47.3041 28.5438 47.3213 28.524H47.7493V28.9699C47.7793 28.9651 47.8079 28.9541 47.8335 28.9377C47.8856 28.9137 47.9427 28.9027 48 28.9054C48.0977 28.9291 48.1854 28.983 48.2507 29.0594L48.2417 28.7228ZM49.094 28.2357L49.0027 28.2769L49.0905 28.456H49.2033L49.094 28.2357ZM49.7011 28.0173C49.4012 28.0239 49.1014 28.0017 48.8058 27.951C48.8182 28.1228 48.7756 28.294 48.684 28.4399C48.655 28.3447 48.6495 28.244 48.6679 28.1462C48.6947 27.9797 48.7091 27.8919 48.7091 27.8884C48.5085 27.7952 48.3366 27.7093 48.1987 27.643C48.2202 27.72 48.2793 27.9009 48.3778 28.1802C48.4323 28.321 48.4701 28.4676 48.4906 28.6171C48.4956 28.7443 48.4768 28.8712 48.4351 28.9914C48.521 28.7622 48.5801 28.5885 48.6142 28.4649C48.667 28.5391 48.7044 28.6231 48.7241 28.712C48.7438 28.8009 48.7454 28.8929 48.7288 28.9824C48.8721 28.9392 49.0045 28.8659 49.1173 28.7676C49.2263 28.6696 49.3571 28.5991 49.4987 28.5616C49.519 28.5614 49.5389 28.567 49.556 28.5777C49.3805 28.6831 49.2262 28.8203 49.1012 28.9824H49.4593C49.4593 28.9448 49.4916 28.9144 49.5542 28.8893C49.5787 28.8783 49.6053 28.8726 49.6321 28.8726C49.659 28.8726 49.6855 28.8783 49.71 28.8893C50.4775 28.8149 51.2127 28.5435 51.8444 28.1014C52.7039 27.544 53.1175 26.9089 53.0853 26.1962C52.0969 27.4067 50.9694 28.0125 49.7029 28.0137L49.7011 28.0173ZM48.3492 20.8692L48.0895 21.1288L48.1647 21.2094L48.4315 20.9408L48.3492 20.8692Z" fill="white"/>
<path d="M1.58553 53.1467C2.82105 54.9672 4.05717 56.7876 5.29388 58.6081L1.58553 64.0659L1 64.9271H107.604L107.018 64.0641L103.312 58.6528C104.55 56.8181 105.786 54.9827 107.022 53.1467L107.6 52.2854H1L1.58553 53.1467Z" fill="#DB5A40"/>
<path d="M1.58553 53.1467C2.82105 54.9672 4.05717 56.7876 5.29388 58.6081L1.58553 64.0659L1 64.9271H107.604L107.018 64.0641L103.312 58.6528C104.55 56.8181 105.786 54.9827 107.022 53.1467L107.6 52.2854H1L1.58553 53.1467Z" stroke="white" stroke-width="0.0945998"/>
<path d="M87.1571 61.0774H87.8321V57.0019H88.6128V56.3663H86.3764V57.0019H87.1571V61.0774ZM85.7711 57.3941C85.7708 57.2604 85.7434 57.1282 85.6906 57.0055C85.6373 56.8795 85.5608 56.7647 85.465 56.6671C85.3625 56.5625 85.241 56.4786 85.1068 56.42C84.9621 56.3578 84.8059 56.3267 84.6484 56.3287C84.4729 56.3248 84.2987 56.3597 84.1381 56.4307C84.0002 56.4949 83.878 56.5884 83.78 56.7047C83.682 56.8258 83.6089 56.9652 83.5651 57.1147C83.5161 57.2779 83.4914 57.4475 83.4917 57.6179C83.4829 57.8722 83.5344 58.125 83.6421 58.3556C83.7723 58.5793 83.98 58.7475 84.2258 58.8283L84.7111 59.0271C84.7917 59.0629 84.8615 59.0969 84.9117 59.1256C84.96 59.1556 85.0005 59.1967 85.0298 59.2456C85.063 59.3042 85.082 59.3698 85.0853 59.4372C85.0973 59.5382 85.1027 59.6398 85.1015 59.7416C85.102 59.8385 85.0966 59.9354 85.0853 60.0316C85.082 60.1093 85.0612 60.1852 85.0245 60.2537C84.9905 60.3131 84.9401 60.3616 84.8794 60.3933C84.7949 60.4304 84.7029 60.447 84.6108 60.4417C84.5438 60.4474 84.4763 60.437 84.4141 60.4115C84.3518 60.3859 84.2965 60.346 84.2527 60.2949C84.1804 60.1983 84.142 60.0806 84.1435 59.96V59.7487H83.4684V59.9994C83.4662 60.1515 83.4968 60.3024 83.558 60.4417C83.6141 60.5759 83.6962 60.6976 83.7997 60.7998C83.903 60.8996 84.0246 60.9787 84.1578 61.0326C84.3026 61.092 84.4579 61.1218 84.6144 61.1203C84.8027 61.125 84.9898 61.0884 85.1623 61.0129C85.3042 60.9495 85.4275 60.8509 85.5205 60.7264C85.6147 60.5954 85.6817 60.4468 85.7174 60.2895C85.7583 60.1079 85.7781 59.9223 85.7765 59.7362C85.7776 59.583 85.7686 59.4298 85.7497 59.2778C85.7361 59.1535 85.7016 59.0324 85.6476 58.9197C85.5965 58.8145 85.5232 58.7216 85.4327 58.6475C85.325 58.5609 85.2041 58.492 85.0746 58.4434L84.5589 58.2392C84.4857 58.2131 84.416 58.1782 84.3512 58.1354C84.303 58.1036 84.2626 58.0613 84.233 58.0118C84.2066 57.9605 84.1902 57.9046 84.1847 57.8471C84.1769 57.7692 84.1733 57.6908 84.1739 57.6125C84.1731 57.5357 84.1797 57.4589 84.1936 57.3833C84.2051 57.3158 84.2288 57.2508 84.2635 57.1917C84.2973 57.1354 84.3455 57.0891 84.4031 57.0574C84.4721 57.0177 84.551 56.9984 84.6305 57.0019C84.7015 56.9956 84.7729 57.008 84.8376 57.0378C84.9023 57.0677 84.9581 57.114 84.9994 57.172C85.0743 57.2915 85.1123 57.4304 85.1086 57.5713V57.7235H85.7819L85.7711 57.3941ZM82.6662 56.3663H81.993V59.9475C81.9987 60.0143 81.9912 60.0816 81.9709 60.1455C81.9507 60.2094 81.918 60.2687 81.8748 60.3199C81.7935 60.3947 81.6871 60.4362 81.5766 60.4362C81.4662 60.4362 81.3598 60.3947 81.2785 60.3199C81.235 60.2689 81.2021 60.2096 81.1818 60.1456C81.1615 60.0817 81.1542 60.0143 81.1603 59.9475V56.3663H80.4835V60.0191C80.4826 60.1675 80.5125 60.3144 80.5712 60.4506C80.6276 60.5798 80.7071 60.6975 80.8058 60.798C80.9057 60.897 81.0236 60.976 81.1532 61.0308C81.287 61.0882 81.431 61.1178 81.5766 61.1178C81.7222 61.1178 81.8663 61.0882 82.0001 61.0308C82.1294 60.9755 82.2472 60.8966 82.3475 60.798C82.4462 60.6975 82.5257 60.5798 82.5821 60.4506C82.6396 60.3141 82.6682 60.1672 82.6662 60.0191V56.3663ZM77.7241 61.0774H79.735V60.4023H78.3974V56.3663H77.7241V61.0774ZM76.9255 57.3941C76.925 57.2606 76.8982 57.1286 76.8467 57.0055C76.7928 56.8794 76.7157 56.7646 76.6193 56.6671C76.5168 56.5627 76.3952 56.4788 76.2612 56.42C76.1159 56.3577 75.9591 56.3266 75.801 56.3287C75.6261 56.325 75.4525 56.3599 75.2925 56.4307C75.1544 56.4945 75.032 56.588 74.9344 56.7047C74.8358 56.8257 74.7621 56.9651 74.7177 57.1147C74.6693 57.278 74.6451 57.4476 74.6461 57.6179C74.6348 57.8726 74.6832 58.1265 74.7875 58.3592C74.9178 58.5829 75.1255 58.751 75.3713 58.8319L75.8547 59.0307C75.924 59.0596 75.9916 59.0925 76.0571 59.1292C76.1061 59.159 76.1473 59.2001 76.1771 59.2491C76.2086 59.3085 76.2275 59.3737 76.2326 59.4407C76.2429 59.5419 76.2477 59.6435 76.2469 59.7451C76.247 59.842 76.2422 59.9388 76.2326 60.0352C76.227 60.1127 76.2057 60.1883 76.1699 60.2573C76.1354 60.317 76.0844 60.3655 76.0231 60.3969C75.9393 60.4341 75.8478 60.4507 75.7563 60.4453C75.6878 60.4521 75.6187 60.4423 75.5548 60.4168C75.4909 60.3912 75.4341 60.3506 75.3892 60.2984C75.3169 60.2019 75.2785 60.0842 75.28 59.9636V59.7523H74.6085V60.003C74.6072 60.155 74.6377 60.3057 74.698 60.4453C74.7555 60.5787 74.8375 60.7002 74.9398 60.8034C75.0431 60.9032 75.1647 60.9822 75.2979 61.0362C75.4427 61.0956 75.5979 61.1254 75.7545 61.1239C75.9434 61.1286 76.131 61.0919 76.3042 61.0165C76.4454 60.9521 76.5685 60.8536 76.6623 60.73C76.7567 60.5993 76.8232 60.4506 76.8575 60.2931C76.8983 60.1115 76.9182 59.9259 76.9166 59.7398C76.9185 59.5865 76.9096 59.4333 76.8897 59.2814C76.8762 59.1571 76.8417 59.036 76.7877 58.9232C76.7371 58.8177 76.6637 58.7247 76.5728 58.6511C76.4648 58.5648 76.3439 58.4959 76.2147 58.4469L75.699 58.2428C75.6256 58.2159 75.5553 58.1811 75.4895 58.139C75.4408 58.1078 75.4004 58.0653 75.3717 58.0151C75.343 57.9649 75.3269 57.9085 75.3247 57.8507C75.3176 57.7727 75.3146 57.6944 75.3158 57.6161C75.3153 57.5393 75.3213 57.4627 75.3337 57.3869C75.3451 57.319 75.3694 57.254 75.4053 57.1953C75.4382 57.1388 75.4858 57.0924 75.5432 57.061C75.6128 57.0211 75.6923 57.0019 75.7724 57.0055C75.8417 57.0002 75.9112 57.0131 75.974 57.043C76.0369 57.0728 76.0908 57.1185 76.1305 57.1756C76.2061 57.2949 76.2447 57.4338 76.2415 57.5749V57.7271H76.9148L76.9255 57.3941ZM71.5644 59.9708C71.561 60.1442 71.5946 60.3163 71.6629 60.4757C71.7232 60.6085 71.8098 60.7276 71.9175 60.8258C72.0253 60.924 72.1519 60.9992 72.2896 61.0469C72.552 61.1472 72.8421 61.1472 73.1044 61.0469C73.2361 60.999 73.3575 60.9267 73.4625 60.8338C73.574 60.7347 73.6626 60.6125 73.7221 60.4757C73.7928 60.317 73.827 60.1444 73.8224 59.9708V58.4899H72.612V59.0755H73.1491V59.9708C73.155 60.0369 73.1458 60.1034 73.1223 60.1655C73.0987 60.2275 73.0613 60.2834 73.0131 60.3289C72.9251 60.4062 72.8114 60.4478 72.6943 60.4453C72.5761 60.4481 72.4611 60.4066 72.372 60.3289C72.324 60.2831 72.2869 60.2272 72.2634 60.1652C72.2398 60.1033 72.2304 60.0368 72.2359 59.9708V57.4818C72.2304 57.4157 72.2398 57.3493 72.2634 57.2873C72.2869 57.2253 72.324 57.1694 72.372 57.1237C72.4609 57.0454 72.5759 57.0033 72.6943 57.0055C72.8116 57.0037 72.9253 57.0458 73.0131 57.1237C73.0613 57.1692 73.0987 57.2251 73.1223 57.2871C73.1458 57.3491 73.155 57.4157 73.1491 57.4818V57.7218H73.8242V57.4818C73.8281 57.3093 73.7939 57.1381 73.7239 56.9804C73.6651 56.8432 73.5764 56.7209 73.4643 56.6223C73.3586 56.5296 73.2374 56.4562 73.1062 56.4057C72.843 56.3102 72.5546 56.3102 72.2914 56.4057C72.1598 56.4554 72.0385 56.5289 71.9333 56.6223C71.8211 56.7216 71.7314 56.8437 71.6701 56.9804C71.6025 57.1388 71.5689 57.3096 71.5716 57.4818L71.5644 59.9708ZM70.0245 61.0809H70.7014V56.3663H70.0245V61.0809ZM69.2599 56.3698H68.5437L68.2232 59.4336H68.2089L67.6591 56.3698H67.1416L66.6152 59.3619H66.6027L66.2625 56.3698H65.5462L66.2481 61.0809H66.8838L67.3941 58.0262H67.4067L67.9224 61.0809H68.5562L69.2599 56.3698ZM63.3509 57.0055H63.6607C63.7362 56.9969 63.8127 57.0061 63.8839 57.0326C63.9552 57.059 64.0192 57.1019 64.0708 57.1577C64.1523 57.2863 64.1917 57.4372 64.1836 57.5892V59.8579C64.1961 60.0162 64.1544 60.1741 64.0654 60.3056C64.0124 60.3573 63.9487 60.3966 63.8787 60.4208C63.8087 60.4449 63.7343 60.4533 63.6607 60.4453H63.3509V57.0055ZM62.6741 61.0809H63.6141C63.7812 61.0922 63.9489 61.0703 64.1074 61.0166C64.266 60.9628 64.4124 60.8782 64.5381 60.7676C64.7512 60.5581 64.8586 60.2304 64.8586 59.7935V57.5857C64.8774 57.2587 64.7675 56.9373 64.5524 56.6904C64.4364 56.5783 64.2983 56.4918 64.1469 56.4363C63.9955 56.3808 63.8342 56.3575 63.6732 56.368H62.6741V61.0809ZM61.7931 56.3698H61.118V59.9511C61.1245 60.0187 61.1174 60.087 61.0971 60.1519C61.0768 60.2168 61.0437 60.2769 60.9999 60.3289C60.9186 60.4036 60.8122 60.4451 60.7017 60.4451C60.5913 60.4451 60.4849 60.4036 60.4036 60.3289C60.317 60.225 60.2751 60.0911 60.2872 59.9564V56.3752H59.6103V60.0281C59.6088 60.1765 59.6387 60.3236 59.6981 60.4596C59.7525 60.5894 59.8315 60.7073 59.9309 60.807C60.0311 60.9055 60.149 60.9845 60.2782 61.0397C60.4123 61.0974 60.5567 61.1271 60.7026 61.1271C60.8485 61.1271 60.9929 61.0974 61.127 61.0397C61.3883 60.9289 61.5963 60.7209 61.7071 60.4596C61.7653 60.3232 61.7945 60.1763 61.7931 60.0281V56.3698ZM56.8492 61.0809H58.8583V60.4059H57.5243V56.3663H56.8492V61.0809ZM53.9305 59.1113V59.0289L54.0595 58.968L54.0899 59.0432L53.9305 59.1113ZM53.5276 58.5096H53.619V58.6547H53.5276V58.5096ZM54.0344 58.8266L53.9592 58.7961L54.0254 58.6564L54.1006 58.6833L54.0344 58.8266ZM54.0344 58.4273H54.1955V58.5222H54.0487L54.0344 58.4273ZM54.226 58.6761L54.1723 58.6153L54.3066 58.4881L54.3621 58.5401L54.226 58.6761ZM53.3862 58.4344C53.4415 58.4283 53.4972 58.4416 53.5438 58.472C53.5205 58.4989 53.4524 58.5096 53.336 58.5096C53.3468 58.6726 53.336 58.7603 53.3217 58.7782C53.3305 58.7682 53.3426 58.7619 53.3557 58.7603C53.3557 58.7603 53.3754 58.789 53.4381 58.8534C53.4114 58.888 53.3919 58.9276 53.3808 58.9698C53.377 58.9923 53.3802 59.0154 53.3898 59.0361C53.397 59.0532 53.4019 59.0713 53.4041 59.0898C53.5887 58.7423 53.7951 58.4068 54.0219 58.0852C53.8958 58.0934 53.7732 58.1298 53.6632 58.1918C53.5532 58.2538 53.4585 58.3398 53.3862 58.4434V58.4344ZM54.5948 58.4541C54.5196 58.5311 54.457 58.5401 54.4033 58.4846L54.4946 58.404C54.4977 58.4026 54.5004 58.4003 54.5023 58.3975C54.5042 58.3946 54.5053 58.3913 54.5053 58.3879C54.5053 58.3503 54.4606 58.284 54.3657 58.1909C54.3657 58.3037 54.3209 58.3574 54.2331 58.3574C54.235 58.313 54.2398 58.2687 54.2475 58.2249C54.2588 58.1955 54.2588 58.163 54.2475 58.1336C53.8392 58.4917 53.6512 58.8677 53.6834 59.2617C53.6834 59.2259 53.6458 59.1739 53.5742 59.0987L53.4471 59.2491C53.4913 59.221 53.5327 59.1886 53.5706 59.1524C53.6225 59.2778 53.6584 59.3673 53.6763 59.421C53.834 59.3845 53.9713 59.2882 54.0595 59.1524C54.0815 59.1794 54.0947 59.2126 54.0971 59.2473C54.0995 59.2822 54.1141 59.3152 54.1382 59.3405C54.1205 59.3578 54.0995 59.3715 54.0765 59.3808C54.0534 59.39 54.0288 59.3945 54.0039 59.3942C54.0756 59.3942 54.1096 59.4228 54.1096 59.4837C54.1092 59.4905 54.1073 59.4972 54.1039 59.5031C54.1004 59.509 54.0956 59.514 54.0899 59.5177L54.2833 59.3619C54.3585 59.3437 54.4285 59.3084 54.4878 59.2587C54.5471 59.209 54.5941 59.1463 54.6253 59.0755C54.6809 58.9987 54.7171 58.9096 54.7309 58.8158C54.7131 58.6827 54.6693 58.5543 54.602 58.438L54.5948 58.4541ZM49.5758 57.4729C49.5699 57.4068 49.5791 57.3402 49.6027 57.2782C49.6262 57.2161 49.6636 57.1602 49.7119 57.1147C49.8 57.0365 49.9145 56.9943 50.0324 56.9966C50.1507 56.995 50.2654 57.0371 50.3547 57.1147C50.4024 57.1606 50.4393 57.2165 50.4625 57.2785C50.4858 57.3405 50.4948 57.4069 50.489 57.4729V59.9708C50.4948 60.0367 50.4858 60.1031 50.4625 60.1651C50.4393 60.2271 50.4024 60.283 50.3547 60.3289C50.2652 60.406 50.1505 60.4475 50.0324 60.4453C49.9172 60.4463 49.8056 60.4048 49.719 60.3289C49.6707 60.2834 49.6334 60.2275 49.6098 60.1655C49.5862 60.1034 49.577 60.0369 49.5829 59.9708L49.5758 57.4729ZM48.9007 59.9708C48.897 60.1444 48.9312 60.3167 49.001 60.4757C49.0611 60.6122 49.1496 60.7343 49.2606 60.8338C49.3649 60.9275 49.4866 60.9999 49.6187 61.0469C49.7493 61.096 49.8875 61.1215 50.027 61.1221C50.1666 61.1213 50.3049 61.0952 50.4353 61.0451C50.5674 60.9981 50.6891 60.9258 50.7934 60.832C50.906 60.7335 50.9953 60.6112 51.0548 60.4739C51.1231 60.3145 51.1567 60.1424 51.1533 59.969V57.48C51.156 57.3078 51.1224 57.137 51.0548 56.9786C50.996 56.841 50.9066 56.7185 50.7934 56.6205C50.6882 56.5271 50.5669 56.4536 50.4353 56.4039C50.3047 56.3574 50.1673 56.3332 50.0288 56.3322C49.8897 56.3333 49.7517 56.3575 49.6205 56.4039C49.4889 56.4536 49.3676 56.5271 49.2624 56.6205C49.1508 56.7196 49.0622 56.8418 49.0028 56.9786C48.9337 57.1366 48.8995 57.3076 48.9025 57.48L48.9007 59.9708ZM46.1629 61.0809H48.1737V60.4059H46.8361V56.3663H46.1629V61.0809ZM43.3874 61.0809H45.3983V60.4059H44.0625V56.3663H43.3874V61.0809ZM40.612 61.0809H42.6228V60.4059H41.2852V59.0217H42.4509V58.3861H41.2852V57.0019H42.6228V56.3663H40.612V61.0809ZM38.2412 57.0019H38.5188C38.6036 56.9928 38.6893 57.0024 38.77 57.0299C38.8508 57.0575 38.9245 57.1023 38.9861 57.1613C39.0814 57.3017 39.1268 57.4701 39.115 57.6394C39.1254 57.8114 39.0849 57.9827 38.9986 58.1318C38.9419 58.1942 38.8709 58.2419 38.7917 58.2709C38.7125 58.2999 38.6274 58.3093 38.5438 58.2983H38.2412V57.0019ZM38.2412 58.8946H38.5384C38.6396 58.8914 38.7404 58.9072 38.8357 58.9412C38.9073 58.9682 38.9695 59.0155 39.0148 59.0772C39.0595 59.143 39.0877 59.2185 39.0971 59.2975C39.1125 59.4012 39.1197 59.506 39.1186 59.6108C39.1186 59.7236 39.1186 59.8311 39.1043 59.9278C39.0969 60.0154 39.072 60.1007 39.0309 60.1785C38.9898 60.2511 38.9272 60.3093 38.8518 60.345C38.7508 60.3884 38.6411 60.4081 38.5313 60.4023H38.2412V58.8946ZM37.5644 61.0774H38.4847C38.927 61.0774 39.2457 60.9681 39.4481 60.7479C39.6648 60.4789 39.7722 60.1381 39.7489 59.7935V59.5303C39.7574 59.3267 39.7188 59.1238 39.6361 58.9376C39.5595 58.788 39.4327 58.6701 39.278 58.6045C39.3488 58.5635 39.4154 58.5155 39.4767 58.4613C39.5344 58.4093 39.5839 58.3489 39.6236 58.2822C39.6644 58.2101 39.6939 58.1322 39.7113 58.0512C39.7341 57.9447 39.7443 57.836 39.7417 57.7271V57.5481C39.7454 57.399 39.7285 57.2502 39.6916 57.1058C39.6507 56.9657 39.5798 56.8362 39.4839 56.7262C39.3789 56.612 39.2507 56.5216 39.1079 56.4612C38.9329 56.39 38.7451 56.3559 38.5564 56.3609H37.5697L37.5644 61.0774ZM34.4756 61.0774H35.1506V56.3663H34.4756V61.0774ZM31.2435 61.0774H31.9186V58.2464H31.9311L32.9625 61.0774H33.6035V56.3663H32.9303V59.2062H32.9159L31.8971 56.3663H31.2489L31.2435 61.0774ZM28.0347 61.0774H28.708V58.2464H28.7205L29.7537 61.0774H30.3894V56.3663H29.7143V59.2062H29.7L28.6829 56.3663H28.0347V61.0774ZM24.6702 61.0774H25.3452L25.544 60.0674H26.4644L26.6613 61.0774H27.3364L26.2835 56.3663H25.7248L24.6702 61.0774ZM26.339 59.43H25.6622L25.9934 57.7235H26.006L26.339 59.43ZM23.2753 61.0774H23.9504V56.3663H23.2753V61.0774ZM20.1561 59.9708C20.1514 60.1444 20.1857 60.317 20.2563 60.4757C20.3152 60.6129 20.4039 60.7352 20.516 60.8338C20.6206 60.9271 20.7422 60.9994 20.8741 61.0469C21.1364 61.1472 21.4265 61.1472 21.6888 61.0469C21.821 60.9999 21.9426 60.9275 22.0469 60.8338C22.1596 60.7353 22.2489 60.613 22.3084 60.4757C22.3775 60.3166 22.4112 60.1442 22.4068 59.9708V58.4899H21.1982V59.0755H21.7354V59.9708C21.7409 60.0368 21.7315 60.1033 21.7079 60.1652C21.6844 60.2272 21.6473 60.2831 21.5993 60.3289C21.5094 60.4041 21.3959 60.4452 21.2788 60.4452C21.1616 60.4452 21.0481 60.4041 20.9582 60.3289C20.91 60.2834 20.8726 60.2275 20.849 60.1655C20.8255 60.1034 20.8163 60.0369 20.8222 59.9708V57.4818C20.8163 57.4157 20.8255 57.3491 20.849 57.2871C20.8726 57.2251 20.91 57.1692 20.9582 57.1237C21.0477 57.0475 21.1613 57.0057 21.2788 57.0057C21.3962 57.0057 21.5099 57.0475 21.5993 57.1237C21.6473 57.1694 21.6844 57.2253 21.7079 57.2873C21.7315 57.3493 21.7409 57.4157 21.7354 57.4818V57.7218H22.4086V57.4818C22.4122 57.3096 22.3786 57.1385 22.3102 56.9804C22.2514 56.8427 22.162 56.7203 22.0487 56.6223C21.9436 56.5289 21.8222 56.4554 21.6906 56.4057C21.4274 56.3102 21.1391 56.3102 20.8759 56.4057C20.7445 56.4558 20.6232 56.5292 20.5178 56.6223C20.4051 56.7204 20.3163 56.8429 20.2581 56.9804C20.1882 57.1381 20.1539 57.3093 20.1578 57.4818L20.1561 59.9708Z" fill="white"/>
</svg>
