<svg width="20" height="27" viewBox="0 0 20 27" fill="none" xmlns="http://www.w3.org/2000/svg">
<path d="M9.68919 0C4.34654 0 0 4.34654 0 9.68913C0 16.3195 8.67087 26.0532 9.04004 26.4643C9.3868 26.8505 9.9922 26.8498 10.3383 26.4643C10.7075 26.0532 19.3784 16.3195 19.3784 9.68913C19.3783 4.34654 15.0318 0 9.68919 0ZM9.68919 14.564C7.00117 14.564 4.81436 12.3771 4.81436 9.68913C4.81436 7.00111 7.00122 4.81431 9.68919 4.81431C12.3772 4.81431 14.564 7.00117 14.564 9.68918C14.564 12.3772 12.3772 14.564 9.68919 14.564Z" fill="#FF7D87"/>
</svg>
